<svg width="1279" height="800" viewBox="0 0 1279 800" fill="none" xmlns="http://www.w3.org/2000/svg">
<g opacity="0.25">
<g filter="url(#filter0_f_420_10003)">
<path d="M620.568 418.623C627.267 437.037 660.476 478.347 725.226 480.024C725.226 480.024 745.063 483.71 782.14 469.73C802.942 461.887 814.354 462.616 835.756 450.141C857.158 437.666 865.501 415.093 825.749 408.604C819.853 368.105 785.9 302.307 697.256 363.11L620.568 418.623Z" fill="#A02EE8"/>
<path d="M380.814 169.574C385.522 188.877 472.538 227.541 547.202 224.799C547.202 224.799 569.552 227.366 614.777 209.754C640.15 199.873 653.238 199.855 680.073 184.959C706.908 170.063 720.298 145.24 675.362 141.061C675.239 97.9898 646.827 29.7229 534.171 101.227L380.814 169.574Z" fill="#76CA72"/>
<path d="M324.713 194.379C334.076 210.393 401.505 253.395 447.437 261.728C447.437 261.728 462.311 266.915 484.836 259.277C497.473 254.991 505.677 256.819 517.566 248.751C529.455 240.683 529.613 222.826 500.034 213.176C485.654 178.903 445.16 120.61 398.228 161.615L324.713 194.379Z" fill="#FBB34F"/>
<path d="M712.219 480.69C690.186 454.375 617.581 394.244 533.809 387.974C533.809 387.974 505.82 381.589 468.798 399.02C448.027 408.8 432.945 407.085 414.802 423.345C396.659 439.605 402.565 470.864 457.996 482.395C495.187 539.736 586.682 634.368 655.134 554.169L712.219 480.69Z" fill="#6F68FF"/>
<path d="M1064.09 494.553C1047.55 464.954 979.383 402.173 868.258 412.25C868.258 412.25 833.336 410.008 773.832 440.875C740.449 458.193 720.743 459.241 687.612 484.459C654.481 509.676 646.46 549.258 716.192 552.242C737.459 619.1 813.666 722.869 948.365 603.078L1064.09 494.553Z" fill="#4FCEFF"/>
<path d="M798.217 332.608C776.183 306.293 703.579 246.162 619.807 239.892C619.807 239.892 591.817 233.507 554.795 250.938C534.025 260.718 518.943 259.003 500.8 275.263C482.657 291.523 344.974 308.215 400.405 319.746C437.596 377.087 640.562 540.225 709.013 460.026L798.217 332.608Z" fill="#4D2F69"/>
<path d="M627.336 209.28C716.208 169.672 837.562 184.477 898.387 242.347C959.213 300.218 936.477 379.24 847.606 418.848C758.734 458.457 637.38 443.652 576.554 385.781C515.729 327.91 538.464 248.888 627.336 209.28Z" fill="#56CEE9"/>
<path d="M160.916 215.15C249.788 175.542 371.141 190.347 431.967 248.218C492.793 306.089 470.057 385.111 381.186 424.719C292.314 464.327 170.96 449.522 110.134 391.651C49.3086 333.78 72.0444 254.758 160.916 215.15Z" fill="#FFA600"/>
<path d="M572.919 229.177C579.619 247.591 612.828 288.901 677.578 290.578C677.578 290.578 697.415 294.264 734.492 280.284C755.293 272.441 766.705 273.17 788.108 260.695C809.51 248.22 817.853 225.647 778.1 219.157C772.204 178.659 738.252 112.861 649.607 173.664L572.919 229.177Z" fill="#64CCB3"/>
<path d="M275.667 309.482C295.654 337.528 359.792 405.835 429.703 427.404C429.703 427.404 453.339 438.502 482.926 429.71C499.525 424.777 512.149 429.191 526.148 417.882C540.147 406.573 533.221 377.1 486.483 356.132C451.908 297.069 369.861 193.887 318.267 253.655L275.667 309.482Z" fill="#C2FF0A"/>
</g>
</g>
<defs>
<filter id="filter0_f_420_10003" x="-137.965" y="-143.895" width="1416.06" height="1015.89" filterUnits="userSpaceOnUse" color-interpolation-filters="sRGB">
<feFlood flood-opacity="0" result="BackgroundImageFix"/>
<feBlend mode="normal" in="SourceGraphic" in2="BackgroundImageFix" result="shape"/>
<feGaussianBlur stdDeviation="107" result="effect1_foregroundBlur_420_10003"/>
</filter>
</defs>
</svg>
