<svg width="24" height="24" viewBox="0 0 24 24" fill="none" xmlns="http://www.w3.org/2000/svg">
<path d="M9.04598 9.113H9.54598V8.613V5.865C9.54598 5.85582 9.54596 5.84588 9.54593 5.83521C9.54524 5.54911 9.54328 4.74034 9.97101 3.99249C10.3868 3.26555 11.2669 2.5 13.283 2.5H15.847V4.998H14.093C13.7048 4.998 13.3642 5.19203 13.135 5.4078C12.9157 5.61427 12.697 5.93809 12.697 6.303V8.601V9.101H13.197H15.7996C15.7412 9.77097 15.6682 10.3952 15.6049 10.884C15.575 11.1144 15.5473 11.3142 15.5244 11.474H13.18H12.68V11.974V21.459H9.54598V11.973V11.473H9.04598H7.53198V9.113H9.04598Z" fill="black" stroke="black"/>
</svg>
