<svg width="24" height="24" viewBox="0 0 24 24" fill="none" xmlns="http://www.w3.org/2000/svg">
<path d="M7.94687 20.457H7.947H16.017C16.6001 20.457 17.1774 20.3422 17.7161 20.119C18.2548 19.8959 18.7443 19.5688 19.1566 19.1566C19.5688 18.7443 19.8959 18.2548 20.119 17.7161C20.3422 17.1774 20.457 16.6001 20.457 16.017V7.948C20.457 6.77063 19.9894 5.64147 19.157 4.80884C18.3245 3.97622 17.1955 3.5083 16.0181 3.508H16.018H7.948C6.77063 3.508 5.64147 3.97563 4.80884 4.80805C3.97622 5.64047 3.5083 6.76951 3.508 7.94687V7.947V16.017C3.508 17.1944 3.97563 18.3235 4.80805 19.1562C5.64046 19.9888 6.76951 20.4567 7.94687 20.457ZM4.09711 4.09776C5.11832 3.07638 6.50297 2.50178 7.94729 2.5H16.0168C17.4611 2.50152 18.8458 3.07589 19.8672 4.09711C20.8887 5.11839 21.4633 6.50316 21.465 7.94759V16.0165C21.4635 17.4609 20.8892 18.8458 19.8679 19.8672C18.8466 20.8887 17.4618 21.4633 16.0174 21.465H7.9485C6.50408 21.4635 5.11921 20.8892 4.09776 19.8679C3.07638 18.8467 2.50178 17.462 2.5 16.0177V7.94824C2.50152 6.50391 3.07589 5.11915 4.09711 4.09776Z" fill="#1F2933" stroke="#1F2933"/>
<path d="M11.9819 6.81897C10.6134 6.82109 9.30148 7.36576 8.33385 8.33358C7.36621 9.3014 6.8218 10.6134 6.81995 11.982C6.82153 13.3509 7.36597 14.6633 8.33385 15.6314C9.30172 16.5994 10.614 17.1441 11.9829 17.146C13.352 17.1444 14.6646 16.5998 15.6327 15.6317C16.6008 14.6636 17.1454 13.3511 17.1469 11.982C17.1448 10.6131 16.5999 9.30085 15.6316 8.33316C14.6634 7.36547 13.3509 6.82129 11.9819 6.81997V6.81897ZM11.9819 15.138C11.1452 15.138 10.3427 14.8056 9.75102 14.2139C9.15935 13.6222 8.82695 12.8197 8.82695 11.983C8.82695 11.1462 9.15935 10.3437 9.75102 9.75205C10.3427 9.16037 11.1452 8.82797 11.9819 8.82797C12.8187 8.82797 13.6212 9.16037 14.2129 9.75205C14.8045 10.3437 15.1369 11.1462 15.1369 11.983C15.1369 12.8197 14.8045 13.6222 14.2129 14.2139C13.6212 14.8056 12.8187 15.138 11.9819 15.138Z" fill="#1F2933"/>
<path d="M17.1559 8.09497C17.8391 8.09497 18.3929 7.54115 18.3929 6.85797C18.3929 6.1748 17.8391 5.62097 17.1559 5.62097C16.4728 5.62097 15.9189 6.1748 15.9189 6.85797C15.9189 7.54115 16.4728 8.09497 17.1559 8.09497Z" fill="#1F2933"/>
</svg>
