<svg width="44" height="44" viewBox="0 0 44 44" fill="none" xmlns="http://www.w3.org/2000/svg">
<rect width="44" height="44" rx="22" fill="url(#paint0_linear_173_4332)"/>
<path d="M13.2417 22.047C14.8785 21.1625 16.7057 20.4242 18.4129 19.6822C21.3499 18.4669 24.2987 17.2726 27.2772 16.1607C27.8567 15.9713 28.8979 15.786 29 16.6285C28.9441 17.8211 28.7141 19.0067 28.5564 20.1923C28.156 22.7995 27.6932 25.3978 27.2419 27.9964C27.0864 28.8621 25.9811 29.3101 25.2739 28.7562C23.5743 27.6299 21.8616 26.5146 20.1837 25.3622C19.634 24.8143 20.1437 24.0274 20.6346 23.6362C22.0345 22.2828 23.519 21.1329 24.8457 19.7095C25.2036 18.8617 24.1462 19.5762 23.7974 19.7952C21.881 21.0908 20.0115 22.4655 17.991 23.6041C16.9589 24.1615 15.756 23.6852 14.7244 23.3742C13.7994 22.9985 12.4441 22.6198 13.2417 22.047Z" fill="white"/>
<defs>
<linearGradient id="paint0_linear_173_4332" x1="32.5" y1="4" x2="12.5" y2="40.5" gradientUnits="userSpaceOnUse">
<stop stop-color="#2DA3DB"/>
<stop offset="1" stop-color="#208BD4"/>
</linearGradient>
</defs>
</svg>
