<svg width="44" height="44" viewBox="0 0 44 44" fill="none" xmlns="http://www.w3.org/2000/svg">
<rect width="44" height="44" rx="22" fill="#7360F2"/>
<path d="M29.7435 13.9508C29.2194 13.4922 27.1015 12.0342 22.3841 12.0144C22.3841 12.0144 16.821 11.6962 14.1091 14.0552C12.5995 15.4871 12.0684 17.5823 12.0124 20.1799C11.9564 22.7775 11.8839 27.6455 16.8321 28.9654H16.8368L16.8336 30.9796C16.8336 30.9796 16.802 31.795 17.3682 31.9613C18.053 32.163 18.455 31.5432 19.1088 30.8751C19.4677 30.5084 19.9633 29.9697 20.3368 29.5579C23.7209 29.828 26.3236 29.2106 26.6192 29.1194C27.3025 28.9093 31.169 28.4396 31.7978 23.5719C32.4469 18.5547 31.4839 15.3812 29.7435 13.9508ZM30.317 23.212C29.7862 27.2763 26.6502 27.5317 26.072 27.7076C25.8261 27.7826 23.5402 28.322 20.6656 28.144C20.6656 28.144 18.5237 30.5945 17.8546 31.2317C17.7502 31.3313 17.6274 31.3715 17.5454 31.3517C17.4302 31.325 17.3986 31.1957 17.3998 31.0066C17.4017 30.7365 17.4182 27.6596 17.4182 27.6596C13.2324 26.5575 13.4764 22.4143 13.5239 20.2447C13.5714 18.0751 14.0011 16.2977 15.2778 15.1023C17.5717 13.132 22.2971 13.4264 22.2971 13.4264C26.2876 13.443 28.1997 14.5825 28.6431 14.9643C30.1154 16.1597 30.8654 19.0202 30.317 23.2108V23.212Z" fill="white"/>
<path d="M22.7844 23.4552C22.7844 23.4552 23.1594 23.4852 23.3613 23.2493L23.755 22.7796C23.9449 22.5467 24.4032 22.3982 24.8519 22.6353C25.1882 22.8171 25.5147 23.0149 25.8302 23.2277C26.128 23.4354 26.7378 23.918 26.7397 23.918C27.0303 24.1506 27.0974 24.4921 26.8996 24.8523C26.8996 24.8544 26.898 24.858 26.898 24.8598C26.6801 25.2179 26.4035 25.5409 26.0786 25.8166C26.0748 25.8184 26.0748 25.8202 26.0713 25.822C25.789 26.0457 25.5117 26.1728 25.2393 26.2035C25.1992 26.2101 25.1584 26.2125 25.1178 26.2107C24.9977 26.2118 24.8782 26.1943 24.7639 26.159L24.7551 26.1467C24.3354 26.0345 23.6347 25.7536 22.4679 25.1431C21.7926 24.794 21.1498 24.3913 20.5462 23.9393C20.2437 23.7129 19.9551 23.4702 19.6819 23.2124L19.6528 23.1848L19.6237 23.1572L19.5946 23.1293C19.5847 23.1203 19.5752 23.111 19.5654 23.1017C19.2936 22.8426 19.0377 22.5689 18.7989 22.282C18.3224 21.7097 17.8977 21.1002 17.5295 20.4599C16.8858 19.3531 16.5896 18.6892 16.4712 18.2906L16.4582 18.2822C16.4211 18.1739 16.4028 18.0606 16.4041 17.9467C16.4019 17.9081 16.4043 17.8695 16.4114 17.8315C16.4454 17.5737 16.5797 17.3106 16.8143 17.0421C16.8162 17.0388 16.8181 17.0388 16.82 17.0352C17.1106 16.7271 17.4512 16.4649 17.8289 16.2585C17.8308 16.2585 17.8346 16.2567 17.8368 16.2567C18.2166 16.0691 18.5768 16.1327 18.8217 16.4068C18.8236 16.4086 19.3316 16.9869 19.5496 17.2693C19.7741 17.5688 19.9826 17.8787 20.1743 18.1979C20.4244 18.6232 20.2677 19.0587 20.0221 19.2381L19.5268 19.6115C19.2768 19.803 19.3097 20.1586 19.3097 20.1586C19.3097 20.1586 20.0433 22.7916 22.7844 23.4552Z" fill="white"/>
<path d="M24.4284 20.2303C24.3765 19.2381 23.845 18.717 22.834 18.667" stroke="white" stroke-width="0.833386" stroke-linecap="round" stroke-linejoin="round"/>
<path d="M26.202 20.3568C26.2231 19.4324 25.9343 18.6601 25.3358 18.0398C24.7345 17.4174 23.9021 17.0746 22.834 17.0005" stroke="white" stroke-width="0.833386" stroke-linecap="round" stroke-linejoin="round"/>
<path d="M28.0736 20.5221C28.0608 18.918 27.5553 17.6547 26.5574 16.7321C25.5594 15.8095 24.3183 15.3433 22.834 15.3335" stroke="white" stroke-width="0.833386" stroke-linecap="round" stroke-linejoin="round"/>
</svg>
