<svg width="662" height="1431" viewBox="0 0 662 1431" fill="none" xmlns="http://www.w3.org/2000/svg">
<g opacity="0.25">
<g filter="url(#filter0_f_420_9887)">
<path d="M426.948 728.009C421.358 754.834 416.848 825.271 444.671 863.9C444.671 863.9 451.722 879.705 474.591 883.127C487.42 885.047 492.123 892.397 507.369 888.859C522.614 885.322 536.78 861.777 522.233 831.228C538.432 777.216 553.982 675.713 486.597 701.798L426.948 728.009Z" fill="#A02EE8"/>
<path d="M436.671 281.053C429.789 307.866 450.275 405.348 484.529 444.041C484.529 444.041 493.21 459.862 521.364 463.336C537.159 465.285 542.949 472.646 561.718 469.143C580.488 465.641 597.928 442.128 580.018 411.546C599.961 357.571 619.106 256.104 536.145 282.035L436.671 281.053Z" fill="#76CA72"/>
<path d="M400.374 280.445C397.075 305.769 406.895 397.63 423.315 433.972C423.315 433.972 427.477 448.857 440.973 452.005C448.545 453.771 451.32 460.688 460.318 457.298C469.315 453.908 477.676 431.649 469.091 402.883C478.65 351.877 487.828 256.075 448.059 280.916L400.374 280.445Z" fill="#FBB34F"/>
<path d="M438.616 857.395C441.101 812.031 436.948 695.812 402.855 640.703C402.855 640.703 393.455 616.921 369.009 617.85C355.294 618.371 349.428 607.716 333.864 617.83C318.301 627.944 306.397 670.397 325.528 716.102C315.334 808.848 311.814 978.902 379.286 917.15L438.616 857.395Z" fill="#6F68FF"/>
<path d="M587.61 1073.26C594.047 1026.89 593.083 909.857 539.318 859.774C539.318 859.774 524.933 837.266 484.317 842.327C461.531 845.166 452.34 835.361 425.997 848.229C399.654 861.097 377.734 906.11 407.151 949.187C385.504 1044.86 370.989 1217.72 486.106 1143.8L587.61 1073.26Z" fill="#4FCEFF"/>
<path d="M545.355 720.585C547.839 675.22 543.686 559.002 509.593 503.892C509.593 503.892 500.194 480.11 475.747 481.039C462.032 481.56 456.166 470.905 440.603 481.019C425.039 491.133 356.472 434.345 375.603 480.05C365.41 572.796 379.323 891.477 446.794 829.725L545.355 720.585Z" fill="#4D2F69"/>
<path d="M527.132 469.828C584.778 470.397 631.509 557.391 631.509 664.135C631.509 770.878 584.778 856.95 527.132 856.381C469.486 855.812 422.754 768.818 422.754 662.074C422.754 555.331 469.486 469.259 527.132 469.828Z" fill="#56CEE9"/>
<path d="M318.377 214.03C376.023 214.599 422.754 301.593 422.754 408.337C422.754 515.081 376.023 601.152 318.377 600.583C260.731 600.014 214 513.02 214 406.276C214 299.533 260.731 213.461 318.377 214.03Z" fill="#FFA600"/>
<path d="M493.857 464.029C488.266 490.855 483.756 561.291 511.58 599.921C511.58 599.921 518.631 615.725 541.499 619.147C554.329 621.067 559.032 628.417 574.277 624.88C589.523 621.342 603.689 597.797 589.142 567.249C605.34 513.237 620.891 411.734 553.505 437.819L493.857 464.029Z" fill="#64CCB3"/>
<path d="M325.269 396.829C321.077 443.206 317.694 564.88 338.562 631.317C338.562 631.317 343.85 658.541 361.001 664.229C370.624 667.42 374.151 680.068 385.585 673.812C397.019 667.556 407.643 626.762 396.733 574.151C408.882 480.726 420.545 305.301 370.006 350.994L325.269 396.829Z" fill="#C2FF0A"/>
</g>
</g>
<defs>
<filter id="filter0_f_420_9887" x="0" y="0.0273438" width="845.509" height="1375.67" filterUnits="userSpaceOnUse" color-interpolation-filters="sRGB">
<feFlood flood-opacity="0" result="BackgroundImageFix"/>
<feBlend mode="normal" in="SourceGraphic" in2="BackgroundImageFix" result="shape"/>
<feGaussianBlur stdDeviation="107" result="effect1_foregroundBlur_420_9887"/>
</filter>
</defs>
</svg>
