<svg width="598" height="1124" viewBox="0 0 598 1124" fill="none" xmlns="http://www.w3.org/2000/svg">
<g opacity="0.25">
<g filter="url(#filter0_f_420_9892)">
<path d="M229.645 574.516C229.49 599.867 235.913 657.455 259.785 662.286C259.785 662.286 266.642 668.089 282.461 650.5C291.336 640.633 295.481 642.074 305.246 625.92C315.011 609.766 321.366 579.34 307.496 568.935C311.128 513.527 307.952 422.547 266.192 501.9L229.645 574.516Z" fill="#A02EE8"/>
<path d="M176.198 225.776C175.173 252.259 202.014 308.359 230.214 307.56C230.214 307.56 238.168 311.936 257.544 289.72C268.415 277.256 273.291 277.746 285.428 258.507C297.565 239.268 306.123 205.975 289.99 198.514C296.142 139.828 295.385 45.7023 243.142 138.69L176.198 225.776Z" fill="#76CA72"/>
<path d="M151.736 257.364C152.918 279.55 171.842 340.789 187.748 353.948C187.748 353.948 192.54 361.601 202.027 352.08C207.35 346.738 210.143 349.552 215.731 339.027C221.319 328.503 223.948 304.18 214.321 289.869C213.898 242.61 207.206 161.597 183.828 215.617L151.736 257.364Z" fill="#FBB34F"/>
<path d="M254.845 662.682C250.426 625.964 232.041 541.183 201.746 529.346C201.746 529.346 192.242 519.546 175.947 541.839C166.804 554.346 161.435 551.417 152.338 572.856C143.242 594.295 140.943 637.115 159.927 655.006C165.526 734.591 185.982 867.119 223.013 760.546L254.845 662.682Z" fill="#6F68FF"/>
<path d="M383.887 695.409C381.988 654.432 365.635 566.216 322.802 575.575C322.802 575.575 310.12 571.147 283.519 610.861C268.595 633.142 261.106 633.795 245.139 666.849C229.172 699.902 220.49 753.514 246.029 760.323C244.328 852.248 257.776 996.622 325.175 838.714L383.887 695.409Z" fill="#4FCEFF"/>
<path d="M308.179 464.314C303.76 427.596 285.375 342.816 255.08 330.978C255.08 330.978 245.576 321.179 229.28 343.471C220.138 355.978 214.768 353.049 205.672 374.488C196.576 395.928 142.901 413.253 161.884 431.144C167.483 510.729 219.593 740.975 256.625 634.403L308.179 464.314Z" fill="#4D2F69"/>
<path d="M262.289 289.568C301.084 239.1 344.146 264.044 358.47 345.281C372.795 426.518 352.957 533.285 314.162 583.752C275.366 634.22 232.305 609.276 217.98 528.04C203.656 446.803 223.494 340.035 262.289 289.568Z" fill="#56CEE9"/>
<path d="M87.7493 279.221C126.545 228.753 169.606 253.697 183.931 334.934C198.255 416.171 178.417 522.938 139.622 573.405C100.827 623.873 57.7649 598.929 43.4407 517.692C29.1164 436.456 48.9541 329.688 87.7493 279.221Z" fill="#FFA600"/>
<path d="M239.161 314.536C239.006 339.887 245.429 397.475 269.301 402.306C269.301 402.306 276.158 408.109 291.977 390.52C300.852 380.653 304.997 382.094 314.762 365.94C324.527 349.787 330.882 319.36 317.012 308.955C320.644 253.547 317.468 162.568 275.708 241.92L239.161 314.536Z" fill="#64CCB3"/>
<path d="M116.909 412.254C120.316 451.251 134.372 546.837 157.303 578.973C157.303 578.973 164.509 595.022 176.792 584.206C183.683 578.139 187.749 584.65 194.59 569.792C201.43 554.935 203.092 514.508 188.704 484.102C184.327 402.275 168.62 258.47 140.806 337.869L116.909 412.254Z" fill="#C2FF0A"/>
</g>
</g>
<defs>
<filter id="filter0_f_420_9892" x="-175.215" y="-114.491" width="773.103" height="1237.56" filterUnits="userSpaceOnUse" color-interpolation-filters="sRGB">
<feFlood flood-opacity="0" result="BackgroundImageFix"/>
<feBlend mode="normal" in="SourceGraphic" in2="BackgroundImageFix" result="shape"/>
<feGaussianBlur stdDeviation="107" result="effect1_foregroundBlur_420_9892"/>
</filter>
</defs>
</svg>
