<svg width="608" height="964" viewBox="0 0 608 964" fill="none" xmlns="http://www.w3.org/2000/svg">
<g opacity="0.25">
<g filter="url(#filter0_f_420_9885)">
<path d="M176.699 574.751C193.341 569.304 230.675 542.298 232.19 489.644C232.19 489.644 235.522 473.513 222.887 443.363C215.799 426.447 216.458 417.167 205.184 399.763C193.91 382.359 173.509 375.575 167.644 407.901C131.043 412.695 71.5789 440.305 126.529 512.39L176.699 574.751Z" fill="#A02EE8"/>
<path d="M232.792 500.222C209.01 518.139 154.666 577.18 149 645.302C149 645.302 143.23 668.063 158.983 698.169C167.821 715.059 166.272 727.323 180.967 742.077C195.662 756.831 223.912 752.029 234.333 706.953C286.155 676.709 371.679 602.306 299.199 546.643L232.792 500.222Z" fill="#6F68FF"/>
<path d="M245.321 214.084C218.571 227.532 161.832 282.967 170.939 373.333C170.939 373.333 168.913 401.731 196.81 450.119C212.46 477.266 213.408 493.29 236.198 520.232C258.988 547.174 294.76 553.696 297.458 496.991C357.881 479.697 451.661 417.726 343.4 308.191L245.321 214.084Z" fill="#4FCEFF"/>
</g>
</g>
<defs>
<filter id="filter0_f_420_9885" x="-109.759" y="0.0839844" width="716.792" height="963.471" filterUnits="userSpaceOnUse" color-interpolation-filters="sRGB">
<feFlood flood-opacity="0" result="BackgroundImageFix"/>
<feBlend mode="normal" in="SourceGraphic" in2="BackgroundImageFix" result="shape"/>
<feGaussianBlur stdDeviation="107" result="effect1_foregroundBlur_420_9885"/>
</filter>
</defs>
</svg>
