<svg width="803" height="1108" viewBox="0 0 803 1108" fill="none" xmlns="http://www.w3.org/2000/svg">
<g opacity="0.25">
<g filter="url(#filter0_f_420_9890)">
<path d="M421.687 455.837C411.256 482.96 402.84 554.044 454.76 592.638C454.76 592.638 467.918 608.485 510.592 611.64C534.533 613.41 543.309 620.762 571.758 616.998C600.208 613.234 626.642 589.309 599.497 558.692C629.724 504.019 658.742 401.466 532.996 428.638L421.687 455.837Z" fill="#A02EE8"/>
<path d="M439.832 5.01351C426.989 32.1399 465.217 130.174 529.138 168.749C529.138 168.749 545.337 184.591 597.874 187.731C627.35 189.492 638.153 196.841 673.178 193.066C708.204 189.292 740.747 165.358 707.328 134.751C744.542 80.0667 780.267 -22.4972 625.457 4.72084L439.832 5.01351Z" fill="#76CA72"/>
<path d="M443.461 586.157C448.098 540.38 440.348 423.242 376.727 368.111C376.727 368.111 359.188 344.251 313.569 345.503C287.975 346.205 277.029 335.537 247.986 345.936C218.944 356.335 196.73 399.297 232.43 445.138C213.408 538.793 206.84 710.316 332.746 647.177L443.461 586.157Z" fill="#6F68FF"/>
<path d="M721.495 801.913C733.507 755.067 731.708 637.066 631.377 587.257C631.377 587.257 604.535 564.746 528.743 570.373C486.222 573.53 469.071 563.761 419.913 577.077C370.756 590.392 329.851 636.064 384.745 679.123C344.35 775.876 317.265 950.374 532.08 874.343L721.495 801.913Z" fill="#4FCEFF"/>
<path d="M642.643 446.824C647.28 401.048 639.529 283.91 575.909 228.778C575.909 228.778 558.37 204.918 512.751 206.17C487.157 206.873 476.211 196.204 447.168 206.603C418.126 217.003 290.174 160.623 325.875 206.464C306.852 300.119 332.815 621.289 458.721 558.149L642.643 446.824Z" fill="#4D2F69"/>
<path d="M608.637 194.203C716.209 194.033 803.413 281.153 803.413 388.791C803.413 496.428 716.209 583.823 608.637 583.993C501.066 584.162 413.862 497.042 413.862 389.405C413.862 281.767 501.066 194.372 608.637 194.203Z" fill="#56CEE9"/>
<path d="M546.544 188.784C536.112 215.907 527.696 286.991 579.616 325.585C579.616 325.585 592.774 341.431 635.448 344.587C659.389 346.357 668.165 353.709 696.614 349.945C725.064 346.181 751.498 322.256 724.353 291.639C754.58 236.966 783.599 134.413 657.852 161.585L546.544 188.784Z" fill="#64CCB3"/>
</g>
</g>
<defs>
<filter id="filter0_f_420_9890" x="0" y="-213.791" width="1017.41" height="1320.8" filterUnits="userSpaceOnUse" color-interpolation-filters="sRGB">
<feFlood flood-opacity="0" result="BackgroundImageFix"/>
<feBlend mode="normal" in="SourceGraphic" in2="BackgroundImageFix" result="shape"/>
<feGaussianBlur stdDeviation="107" result="effect1_foregroundBlur_420_9890"/>
</filter>
</defs>
</svg>
