<svg width="929" height="437" viewBox="0 0 929 437" fill="none" xmlns="http://www.w3.org/2000/svg">
<path d="M231.543 373.803C231.543 387.697 232.439 397.782 234.229 404.057C236.468 410.332 240.273 414.59 245.645 416.831C251.018 419.072 259.748 420.192 271.835 420.192C272.73 420.192 273.178 421.537 273.178 424.226C273.178 426.915 272.73 428.26 271.835 428.26C258.404 428.26 247.884 428.036 240.273 427.588L195.281 426.915L141.558 427.588C132.605 428.036 119.846 428.26 103.281 428.26C102.386 428.26 101.938 426.915 101.938 424.226C101.938 421.537 102.386 420.192 103.281 420.192C121.636 420.192 134.395 419.296 141.558 417.503C149.169 415.262 154.317 411.228 157.004 405.402C159.69 399.127 161.033 388.594 161.033 373.803V99.5015L191.923 75.2985L41.5005 280.352C38.8144 283.49 39.9336 285.058 44.8582 285.058C120.965 285.058 196.624 283.714 271.835 281.025C273.626 281.025 274.521 285.731 274.521 295.143C274.521 304.555 273.626 309.262 271.835 309.262C206.025 306.124 117.383 304.555 5.90946 304.555C3.67103 304.555 1.88028 303.883 0.537224 302.538C-0.358149 300.746 -0.134306 298.953 1.20875 297.16L221.47 4.70613C222.366 3.80973 223.709 3.36154 225.5 3.36154C226.843 3.36154 228.186 3.80973 229.529 4.70613C230.872 5.15436 231.543 6.05077 231.543 7.39537V373.803Z" fill="white" fill-opacity="0.5"/>
<path d="M477.748 437C432.979 437 397.836 417.727 372.318 379.182C346.8 340.188 334.041 286.403 334.041 217.828C334.041 149.252 346.8 95.9159 372.318 57.8185C397.836 19.2728 433.427 0 479.091 0C523.412 0 557.884 19.4969 582.507 58.4908C607.577 97.0364 620.112 150.821 620.112 219.845C620.112 287.972 607.577 341.308 582.507 379.854C557.436 417.951 522.517 437 477.748 437ZM485.806 422.882C505.505 422.882 519.607 407.867 528.113 377.837C536.619 347.807 540.872 297.832 540.872 227.912C540.872 176.369 538.41 135.134 533.485 104.208C529.008 73.2815 521.621 50.6472 511.324 36.3046C501.475 21.5138 488.269 14.1184 471.704 14.1184C450.663 14.1184 435.442 29.5815 426.04 60.5077C417.087 90.9856 412.61 141.857 412.61 213.122C412.61 287.972 418.206 341.756 429.398 374.475C441.038 406.746 459.841 422.882 485.806 422.882Z" fill="white" fill-opacity="0.5"/>
<path d="M886.022 373.803C886.022 387.697 886.918 397.782 888.708 404.057C890.947 410.332 894.752 414.59 900.124 416.831C905.497 419.072 914.226 420.192 926.314 420.192C927.209 420.192 927.657 421.537 927.657 424.226C927.657 426.915 927.209 428.26 926.314 428.26C912.883 428.26 902.363 428.036 894.752 427.588L849.76 426.915L796.037 427.588C787.083 428.036 774.324 428.26 757.76 428.26C756.865 428.26 756.417 426.915 756.417 424.226C756.417 421.537 756.865 420.192 757.76 420.192C776.115 420.192 788.874 419.296 796.037 417.503C803.648 415.262 808.796 411.228 811.482 405.402C814.169 399.127 815.512 388.594 815.512 373.803V99.5015L846.402 75.2985L695.979 280.352C693.293 283.49 694.412 285.058 699.337 285.058C775.444 285.058 851.103 283.714 926.314 281.025C928.105 281.025 929 285.731 929 295.143C929 304.555 928.105 309.262 926.314 309.262C860.504 306.124 771.862 304.555 660.388 304.555C658.15 304.555 656.359 303.883 655.016 302.538C654.121 300.746 654.344 298.953 655.688 297.16L875.949 4.70613C876.845 3.80973 878.188 3.36154 879.978 3.36154C881.321 3.36154 882.664 3.80973 884.008 4.70613C885.351 5.15436 886.022 6.05077 886.022 7.39537V373.803Z" fill="white" fill-opacity="0.5"/>
</svg>
