<svg width="98" height="74" viewBox="0 0 98 74" fill="none" xmlns="http://www.w3.org/2000/svg">
<path d="M90.8126 9.11256C70.8945 16.7094 50.5816 23.2734 33.8735 35.5751C20.4281 45.49 9.53491 57.0573 3.24635 71.6083C2.85167 72.5033 2.61489 73.9263 1.14142 73.5821C-0.516229 73.1919 0.0363283 71.7919 0.32576 70.7821C1.27299 67.5689 2.87801 64.5852 4.58828 61.6475C16.2182 41.7031 34.3471 27.5423 56.7123 17.2143C65.632 13.0831 74.8939 9.59455 85.2082 7.27649C80.0247 6.40435 75.3148 5.71581 70.6839 4.77482C68.6579 4.3617 65.5268 4.01744 66.1846 1.51577C66.8424 -1.03179 69.6578 0.345267 71.5522 0.597728C78.1829 1.51577 84.8135 2.50266 91.4441 3.53546C92.6807 3.71907 93.9174 4.01744 95.0488 4.47646C98.0747 5.69287 98.7851 7.82731 97.1275 10.3519C96.917 10.6732 96.7064 10.9946 96.417 11.27C91.5756 15.8602 86.6816 20.3815 81.235 24.4439C80.4457 25.0406 79.4458 26.0734 78.2354 25.2242C77.1829 24.4898 78.1039 23.4799 78.446 22.6996C80.3404 18.4078 83.761 15.0569 87.3394 11.7979C88.3919 10.8339 89.6811 10.0536 90.8389 9.18143L90.8126 9.11256Z" fill="url(#paint0_linear_236_5249)"/>
<defs>
<linearGradient id="paint0_linear_236_5249" x1="98" y1="36.8173" x2="0" y2="36.8173" gradientUnits="userSpaceOnUse">
<stop stop-color="#DD66A9"/>
<stop offset="0.5" stop-color="#EF7F31"/>
<stop offset="1" stop-color="#D7B33D"/>
</linearGradient>
</defs>
</svg>
