<svg width="1440" height="3071" viewBox="0 0 1440 3071" fill="none" xmlns="http://www.w3.org/2000/svg">
<g opacity="0.25">
<g filter="url(#filter0_f_215_4769)">
<path d="M1453.58 2499.89C1460.28 2528.17 1493.49 2591.61 1558.24 2594.18C1558.24 2594.18 1578.08 2599.84 1615.15 2578.37C1635.95 2566.33 1647.37 2567.45 1668.77 2548.29C1690.17 2529.13 1698.52 2494.46 1658.76 2484.5C1652.87 2422.3 1618.91 2321.26 1530.27 2414.63L1453.58 2499.89Z" fill="#A02EE8"/>
<path d="M1213.82 2117.42C1218.53 2147.06 1305.55 2206.44 1380.21 2202.23C1380.21 2202.23 1402.56 2206.17 1447.79 2179.12C1473.16 2163.95 1486.25 2163.92 1513.08 2141.05C1539.92 2118.17 1553.31 2080.05 1508.37 2073.63C1508.25 2007.48 1479.84 1902.65 1367.18 2012.46L1213.82 2117.42Z" fill="#76CA72"/>
<path d="M1157.72 2155.51C1167.08 2180.1 1234.51 2246.14 1280.44 2258.94C1280.44 2258.94 1295.32 2266.91 1317.84 2255.18C1330.48 2248.59 1338.69 2251.4 1350.57 2239.01C1362.46 2226.62 1362.62 2199.2 1333.04 2184.38C1318.66 2131.74 1278.17 2042.22 1231.23 2105.19L1157.72 2155.51Z" fill="#FBB34F"/>
<path d="M1545.23 2595.2C1523.2 2554.79 1450.59 2462.45 1366.82 2452.82C1366.82 2452.82 1338.83 2443.01 1301.81 2469.78C1281.03 2484.8 1265.95 2482.17 1247.81 2507.14C1229.67 2532.11 1235.57 2580.11 1291 2597.82C1328.2 2685.88 1419.69 2831.21 1488.14 2708.05L1545.23 2595.2Z" fill="#6F68FF"/>
<path d="M1897.11 2616.49C1880.57 2571.04 1812.4 2474.62 1701.27 2490.1C1701.27 2490.1 1666.35 2486.66 1606.84 2534.06C1573.46 2560.65 1553.76 2562.26 1520.62 2600.99C1487.49 2639.72 1479.47 2700.5 1549.2 2705.09C1570.47 2807.76 1646.68 2967.12 1781.38 2783.16L1897.11 2616.49Z" fill="#4FCEFF"/>
<path d="M1631.23 2367.79C1609.2 2327.38 1536.59 2235.03 1452.82 2225.41C1452.82 2225.41 1424.83 2215.6 1387.8 2242.37C1367.03 2257.39 1351.95 2254.76 1333.81 2279.73C1315.66 2304.7 1177.98 2330.33 1233.41 2348.04C1270.6 2436.1 1473.57 2686.63 1542.02 2563.47L1631.23 2367.79Z" fill="#4D2F69"/>
<path d="M1460.35 2178.39C1549.22 2117.57 1670.58 2140.3 1731.4 2229.18C1792.23 2318.05 1769.49 2439.41 1680.62 2500.23C1591.75 2561.06 1470.39 2538.32 1409.56 2449.45C1348.74 2360.58 1371.47 2239.22 1460.35 2178.39Z" fill="#56CEE9"/>
<path d="M993.919 2187.41C1082.79 2126.58 1204.15 2149.32 1264.97 2238.19C1325.8 2327.07 1303.06 2448.42 1214.19 2509.25C1125.32 2570.07 1003.96 2547.34 943.136 2458.47C882.309 2369.59 905.046 2248.24 993.919 2187.41Z" fill="#FFA600"/>
<path d="M1405.93 2208.95C1412.63 2237.23 1445.84 2300.67 1510.59 2303.25C1510.59 2303.25 1530.43 2308.91 1567.5 2287.44C1588.31 2275.39 1599.72 2276.51 1621.12 2257.35C1642.52 2238.2 1650.87 2203.53 1611.11 2193.56C1605.22 2131.37 1571.26 2030.32 1482.62 2123.7L1405.93 2208.95Z" fill="#64CCB3"/>
<path d="M1108.67 2332.28C1128.66 2375.35 1192.8 2480.25 1262.71 2513.37C1262.71 2513.37 1286.35 2530.41 1315.93 2516.91C1332.53 2509.34 1345.16 2516.12 1359.16 2498.75C1373.16 2481.38 1366.23 2436.12 1319.49 2403.92C1284.92 2313.21 1202.87 2154.76 1151.27 2246.54L1108.67 2332.28Z" fill="#C2FF0A"/>
</g>
</g>
<g opacity="0.25">
<g filter="url(#filter1_f_215_4769)">
<path d="M1208.99 375.568C1203.58 347.015 1173.28 282.135 1108.71 276.628C1108.71 276.628 1089.15 270.074 1051.14 289.842C1029.81 300.932 1018.46 299.297 996.216 317.465C973.967 335.633 964.062 369.886 1003.32 381.642C1006.39 444.041 1035.73 546.521 1128.52 457.258L1208.99 375.568Z" fill="#A02EE8"/>
<path d="M1431.17 768.507C1427.82 738.682 1343.58 675.422 1268.8 676.245C1268.8 676.245 1246.65 671.296 1200.24 696.265C1174.21 710.274 1161.13 709.709 1133.29 731.345C1105.44 752.981 1090.34 790.457 1134.94 798.904C1132.07 864.987 1155.7 971.005 1273.22 866.413L1431.17 768.507Z" fill="#76CA72"/>
<path d="M1488.95 732.996C1480.71 708.004 1416.34 638.977 1371.03 624.113C1371.03 624.113 1356.53 615.48 1333.5 626.178C1320.58 632.18 1312.51 629.004 1300.07 640.843C1287.63 652.682 1286.23 680.069 1315.11 696.215C1327.09 749.445 1363.49 840.71 1413.22 779.929L1488.95 732.996Z" fill="#FBB34F"/>
<path d="M1121.75 276.196C1141.93 317.565 1210.28 413.105 1293.53 426.52C1293.53 426.52 1321.05 437.583 1359.25 412.519C1380.68 398.457 1395.62 401.771 1414.88 377.648C1434.14 353.525 1430.41 305.302 1375.84 285.099C1342.68 195.445 1257.86 46.1211 1183.89 166.056L1121.75 276.196Z" fill="#6F68FF"/>
<path d="M771.202 238.984C785.664 285.143 849.396 384.547 961.111 374.123C961.111 374.123 995.841 379.144 1057.43 334.486C1091.99 309.431 1111.75 308.715 1146.6 271.529C1181.45 234.344 1192.22 173.983 1122.76 166.245C1106.17 62.7117 1037.26 -99.9365 894.363 77.7359L771.202 238.984Z" fill="#4FCEFF"/>
<path d="M1025.54 499.477C1045.72 540.846 1114.07 636.387 1197.32 649.802C1197.32 649.802 1224.83 660.865 1263.03 635.8C1284.46 621.738 1299.41 625.052 1318.66 600.929C1337.92 576.806 1476.63 557.438 1422.05 537.235C1388.89 447.581 1197.48 188.108 1123.52 308.043L1025.54 499.477Z" fill="#4D2F69"/>
<path d="M1187.66 696.424C1096.13 753.161 975.926 724.949 919.189 633.411C862.451 541.873 890.663 421.672 982.201 364.935C1073.74 308.198 1193.94 336.409 1250.68 427.947C1307.41 519.485 1279.2 639.686 1187.66 696.424Z" fill="#56CEE9"/>
<path d="M1654.02 708.552C1562.48 765.289 1442.28 737.078 1385.55 645.54C1328.81 554.002 1357.02 433.801 1448.56 377.064C1540.1 320.326 1660.3 348.538 1717.03 440.076C1773.77 531.614 1745.56 651.815 1654.02 708.552Z" fill="#FFA600"/>
<path d="M1243.41 668.364C1238 639.811 1207.7 574.931 1143.13 569.424C1143.13 569.424 1123.57 562.87 1085.56 582.638C1064.23 593.728 1052.88 592.093 1030.63 610.261C1008.38 628.429 998.48 662.682 1037.74 674.438C1040.81 736.836 1070.15 839.317 1162.94 750.054L1243.41 668.364Z" fill="#64CCB3"/>
<path d="M1545.95 558.634C1527.94 514.702 1468.62 407.003 1400.28 370.745C1400.28 370.745 1377.44 352.649 1347.27 364.797C1330.34 371.613 1318.04 364.268 1303.27 380.983C1288.49 397.699 1293.36 443.228 1338.59 477.515C1369.02 569.691 1443.81 731.705 1499.51 642.35L1545.95 558.634Z" fill="#C2FF0A"/>
</g>
</g>
<g opacity="0.25">
<g filter="url(#filter2_f_215_4769)">
<path d="M-117.811 1862.79C-92.4043 1876.9 -23.155 1895.13 22.3877 1849.03C22.3877 1849.03 39.9394 1838.19 49.0678 1796.33C54.1892 1772.84 62.7074 1765.16 62.9793 1736.44C63.2513 1707.72 43.2636 1678.19 9.10937 1700.84C-40.8115 1663.28 -138.344 1620.26 -129.106 1748.68L-117.811 1862.79Z" fill="#A02EE8"/>
<path d="M-561.952 1782.15C-536.881 1798.65 -434.368 1774.38 -387.156 1716.38C-387.156 1716.38 -369.182 1702.53 -358.681 1650.89C-352.79 1621.92 -343.99 1612.23 -342.803 1576.99C-341.617 1541.74 -360.755 1506.16 -395.782 1535.03C-444.731 1490.54 -541.33 1440.87 -536.135 1598.11L-561.952 1782.15Z" fill="#76CA72"/>
<path d="M-571.622 1849.27C-547.144 1858.92 -452.91 1853.62 -412.5 1828.31C-412.5 1828.31 -396.589 1822.69 -390.074 1798.14C-386.419 1784.37 -378.815 1780.2 -379.956 1763.07C-381.097 1745.93 -401.249 1727.33 -432.134 1739.2C-480.709 1714.35 -574.136 1683.93 -559.246 1761.04L-571.622 1849.27Z" fill="#FBB34F"/>
<path d="M14.3767 1859.33C-30.3283 1848.37 -147.483 1839.77 -211.057 1895.17C-211.057 1895.17 -237.165 1909.24 -242.341 1954.63C-245.244 1980.09 -257.355 1989.46 -251.135 2019.7C-244.916 2049.93 -205.472 2077.92 -155.03 2048.9C-64.9091 2080.78 104.119 2111.13 59.2659 1977.55L14.3767 1859.33Z" fill="#6F68FF"/>
<path d="M267.259 1613.72C222.532 1595.3 105.36 1580.68 41.896 1673.21C41.896 1673.21 15.8163 1696.69 10.7317 1772.6C7.87911 1815.19 -4.21238 1830.83 2.06766 1881.4C8.3477 1931.98 47.8482 1978.88 98.2324 1930.45C188.418 1983.94 357.508 2035.04 312.386 1811.54L267.259 1613.72Z" fill="#4FCEFF"/>
<path d="M-95.6655 1642.52C-140.371 1631.57 -257.525 1622.97 -321.1 1678.37C-321.1 1678.37 -347.207 1692.43 -352.383 1737.83C-355.287 1763.29 -367.397 1772.66 -361.178 1802.89C-354.958 1833.13 -428.817 1952.12 -378.375 1923.1C-288.254 1954.98 33.6251 1973.88 -11.2282 1840.31L-95.6655 1642.52Z" fill="#4D2F69"/>
<path d="M-350.755 1641.12C-335.794 1534.47 -237.207 1460.14 -130.556 1475.1C-23.9047 1490.06 50.4247 1588.65 35.4634 1695.3C20.5021 1801.95 -78.0843 1876.28 -184.736 1861.32C-291.387 1846.36 -365.716 1747.77 -350.755 1641.12Z" fill="#56CEE9"/>
<path d="M-658.452 1991.77C-643.491 1885.12 -544.904 1810.79 -438.253 1825.75C-331.602 1840.71 -257.273 1939.3 -272.234 2045.95C-287.195 2152.6 -385.782 2226.93 -492.433 2211.97C-599.084 2197.01 -673.413 2098.42 -658.452 1991.77Z" fill="#FFA600"/>
<path d="M-364.857 1701.91C-339.45 1716.02 -270.201 1734.25 -224.658 1688.15C-224.658 1688.15 -207.106 1677.31 -197.978 1635.45C-192.857 1611.96 -184.338 1604.28 -184.066 1575.56C-183.794 1546.84 -203.782 1517.31 -237.936 1539.96C-287.857 1502.4 -385.39 1459.38 -376.152 1587.8L-364.857 1701.91Z" fill="#64CCB3"/>
<path d="M-474.09 2004.63C-428.8 2018.9 -308.077 2042.21 -236.487 2012.89C-236.487 2012.89 -207.967 2006.91 -198.001 1975.95C-192.41 1958.59 -178.893 1953.83 -182.288 1931.78C-185.684 1909.73 -223.79 1884.35 -279.08 1897.17C-369.39 1861.58 -541.751 1815.4 -508.716 1915.38L-474.09 2004.63Z" fill="#C2FF0A"/>
</g>
</g>
<g opacity="0.25">
<g filter="url(#filter3_f_215_4769)">
<path d="M-108.837 535.806C-80.4728 542.136 -8.89832 539.982 21.7087 482.863C21.7087 482.863 35.4679 467.492 32.3559 424.761C30.61 400.787 36.6028 391.011 28.7217 363.389C20.8406 335.766 -6.69721 313.116 -33.0297 344.52C-91.5503 322.649 -197.276 309.042 -152.015 429.576L-108.837 535.806Z" fill="#A02EE8"/>
<path d="M-557.622 584.363C-528.901 593.08 -437.472 540.75 -408.637 471.749C-408.637 471.749 -395.327 453.367 -399.895 400.868C-402.458 371.415 -396.765 359.63 -405.617 325.497C-414.469 291.364 -442.909 262.663 -468.315 300.28C-527.867 271.491 -634.583 251.243 -585.031 400.556L-557.622 584.363Z" fill="#76CA72"/>
<path d="M-547.869 651.471C-521.657 653.793 -432.793 621.992 -401.214 586.267C-401.214 586.267 -387.549 576.369 -388.26 550.982C-388.658 536.739 -382.548 530.586 -388.498 514.478C-394.449 498.37 -419.047 486.246 -445.302 506.378C-498.928 496.317 -597.147 493.628 -561.009 563.358L-547.869 651.471Z" fill="#FBB34F"/>
<path d="M16.9457 495.01C-29.0321 497.173 -143.819 522.135 -189.082 593.282C-189.082 593.282 -210.131 614.175 -202.228 659.173C-197.793 684.418 -206.752 696.834 -192.217 724.064C-177.683 751.294 -131.923 766.956 -91.7744 724.832C3.68474 729.853 174.384 711.047 93.5059 595.662L16.9457 495.01Z" fill="#6F68FF"/>
<path d="M189.836 187.796C141.723 182.812 25.2127 202.007 -9.42009 308.728C-9.42009 308.728 -27.7749 338.636 -11.1337 412.873C-1.79753 454.522 -8.959 472.95 11.4001 519.673C31.7592 566.395 82.9321 600.169 117.523 539.446C219.171 565.176 395.811 566.253 289.187 364.712L189.836 187.796Z" fill="#4FCEFF"/>
<path d="M-150.038 318.294C-196.016 320.457 -310.803 345.419 -356.066 416.566C-356.066 416.566 -377.115 437.459 -369.211 482.457C-364.777 507.702 -373.735 520.118 -359.201 547.348C-344.667 574.579 -381.766 709.626 -341.618 667.502C-246.159 672.523 67.8775 599.413 -13.0003 484.029L-150.038 318.294Z" fill="#4D2F69"/>
<path d="M-395.063 389.253C-410.947 282.736 -337.474 183.51 -230.956 167.626C-124.438 151.742 -25.212 225.215 -9.32807 331.733C6.5558 438.251 -66.9175 537.477 -173.435 553.361C-279.953 569.244 -379.179 495.771 -395.063 389.253Z" fill="#56CEE9"/>
<path d="M-590.743 812.745C-606.627 706.228 -533.153 607.002 -426.636 591.118C-320.118 575.234 -220.892 648.707 -205.008 755.225C-189.124 861.743 -262.597 960.969 -369.115 976.853C-475.633 992.736 -574.859 919.263 -590.743 812.745Z" fill="#FFA600"/>
<path d="M-391.353 451.553C-362.989 457.882 -291.414 455.728 -260.807 398.609C-260.807 398.609 -247.048 383.239 -250.16 340.507C-251.906 316.533 -245.913 306.757 -253.794 279.135C-261.675 251.513 -289.213 228.862 -315.546 260.266C-374.066 238.396 -479.792 224.788 -434.531 345.323L-391.353 451.553Z" fill="#64CCB3"/>
<path d="M-410.297 772.819C-362.822 773.659 -240.441 761.799 -180.1 713.385C-180.1 713.385 -154.443 699.57 -153.661 667.056C-153.223 648.815 -141.609 640.421 -151.115 620.241C-160.62 600.061 -204.36 586.515 -253.746 614.487C-350.44 605.959 -528.823 610.529 -468.803 697.042L-410.297 772.819Z" fill="#C2FF0A"/>
</g>
</g>
<defs>
<filter id="filter0_f_215_4769" x="695.037" y="1750.66" width="1416.07" height="1330.83" filterUnits="userSpaceOnUse" color-interpolation-filters="sRGB">
<feFlood flood-opacity="0" result="BackgroundImageFix"/>
<feBlend mode="normal" in="SourceGraphic" in2="BackgroundImageFix" result="shape"/>
<feGaussianBlur stdDeviation="107" result="effect1_foregroundBlur_215_4769"/>
</filter>
<filter id="filter1_f_215_4769" x="557.202" y="-215.374" width="1403.11" height="1339.82" filterUnits="userSpaceOnUse" color-interpolation-filters="sRGB">
<feFlood flood-opacity="0" result="BackgroundImageFix"/>
<feBlend mode="normal" in="SourceGraphic" in2="BackgroundImageFix" result="shape"/>
<feGaussianBlur stdDeviation="107" result="effect1_foregroundBlur_215_4769"/>
</filter>
<filter id="filter2_f_215_4769" x="-874.367" y="1259.18" width="1408.27" height="1168.7" filterUnits="userSpaceOnUse" color-interpolation-filters="sRGB">
<feFlood flood-opacity="0" result="BackgroundImageFix"/>
<feBlend mode="normal" in="SourceGraphic" in2="BackgroundImageFix" result="shape"/>
<feGaussianBlur stdDeviation="107" result="effect1_foregroundBlur_215_4769"/>
</filter>
<filter id="filter3_f_215_4769" x="-811.786" y="-48.5332" width="1348.03" height="1241.54" filterUnits="userSpaceOnUse" color-interpolation-filters="sRGB">
<feFlood flood-opacity="0" result="BackgroundImageFix"/>
<feBlend mode="normal" in="SourceGraphic" in2="BackgroundImageFix" result="shape"/>
<feGaussianBlur stdDeviation="107" result="effect1_foregroundBlur_215_4769"/>
</filter>
</defs>
</svg>
