<svg width="1332" height="345" viewBox="0 0 1332 345" fill="none" xmlns="http://www.w3.org/2000/svg">
<path d="M195.62 150.997C258.639 192.569 275.348 253.733 239.542 305.817C239.542 305.817 213.762 345 131.17 345C38.5516 345 2.74563 320.63 2.74563 320.63V228.885H7.04234C14.6809 261.378 56.2158 340.699 131.17 340.699C182.253 340.699 196.575 277.147 139.286 234.619L65.7641 188.269C-2.0285 145.741 -18.7379 87.4446 21.8421 36.3158C21.8421 36.3158 48.0998 0 126.395 0C208.033 0 239.542 21.9806 239.542 21.9806V102.258H235.245C225.697 67.8532 202.781 4.30056 126.395 4.30056C74.8349 4.30056 60.0351 61.6413 122.099 102.258L195.62 150.997Z" fill="white" fill-opacity="0.3"/>
<path d="M475.451 340.699C531.786 340.699 533.695 306.295 533.695 174.889C533.695 43.9612 531.786 4.30056 475.451 4.30056C418.639 4.30056 416.252 43.9612 416.252 174.889C416.252 306.295 418.639 340.699 475.451 340.699ZM475.451 0C580.482 0 649.707 80.277 649.707 174.889C649.707 269.979 580.482 345 475.451 345C370.42 345 301.196 269.979 301.196 174.889C301.196 80.277 370.42 0 475.451 0Z" fill="white" fill-opacity="0.3"/>
<path d="M862.778 4.30056H1007.43V8.12328C986.905 8.12328 956.351 22.9363 919.113 107.036L825.062 340.699H811.218C683.271 59.2521 676.587 46.8283 676.587 46.8283C659.4 8.60111 652.239 9.07897 638.872 8.12328V4.30056H797.85V8.12328C764.909 8.12328 791.166 63.5526 791.166 63.5526L865.165 228.407L914.339 107.036C928.661 71.6759 920.068 8.12328 862.778 8.12328V4.30056Z" fill="white" fill-opacity="0.3"/>
<path d="M1157.27 243.698L1109.53 136.184L1067.04 243.698H1157.27ZM1061.31 247.999L1157.74 4.30056H1160.13C1280.92 281.447 1289.03 297.216 1289.03 297.216C1306.22 335.443 1322.45 335.921 1332 336.877V340.699H1164.91V336.877C1203.1 336.877 1174.45 280.97 1174.45 280.97L1159.18 247.999H1065.6C1056.06 269.979 1064.65 336.877 1121.94 336.877V340.699H984.444V336.877C998.766 335.921 1024.55 332.098 1061.31 247.999Z" fill="white" fill-opacity="0.3"/>
</svg>
