<svg width="822" height="213" viewBox="0 0 822 213" fill="none" xmlns="http://www.w3.org/2000/svg">
<path d="M147.159 139.745C147.159 137.135 146.918 135.221 146.435 134.003C145.952 132.698 145.027 131.785 143.659 131.263C142.291 130.741 140.118 130.48 137.141 130.48C136.9 130.48 136.779 130.219 136.779 129.697C136.779 129.175 136.9 128.914 137.141 128.914L143.055 129.044C147.078 129.218 150.699 129.305 153.918 129.305C156.09 129.305 159.188 129.218 163.212 129.044L169.971 128.914C170.212 128.914 170.333 129.175 170.333 129.697C170.333 130.219 170.212 130.48 169.971 130.48C167.235 130.48 165.183 130.741 163.815 131.263C162.528 131.698 161.643 132.524 161.16 133.742C160.757 134.96 160.556 136.874 160.556 139.484V199.906C160.556 202.516 160.757 204.474 161.16 205.779C161.643 206.997 162.528 207.823 163.815 208.258C165.103 208.693 167.154 208.911 169.971 208.911C170.212 208.911 170.333 209.172 170.333 209.694C170.333 210.216 170.212 210.477 169.971 210.477C167.154 210.477 164.901 210.433 163.212 210.346L153.918 210.216L143.055 210.346C141.607 210.433 139.635 210.477 137.141 210.477C136.9 210.477 136.779 210.216 136.779 209.694C136.779 209.172 136.9 208.911 137.141 208.911C140.118 208.911 142.291 208.693 143.659 208.258C145.027 207.823 145.952 206.997 146.435 205.779C146.918 204.561 147.159 202.603 147.159 199.906V139.745ZM101.053 166.237H153.314V169.891H101.053V166.237ZM94.7765 139.484C94.7765 136.874 94.5351 134.96 94.0523 133.742C93.5695 132.524 92.6844 131.698 91.3969 131.263C90.19 130.741 88.2186 130.48 85.4828 130.48C85.2414 130.48 85.1207 130.219 85.1207 129.697C85.1207 129.175 85.2414 128.914 85.4828 128.914L92.0004 129.044C95.7018 129.218 98.679 129.305 100.932 129.305C103.99 129.305 107.53 129.218 111.553 129.044L118.192 128.914C118.353 128.914 118.433 129.175 118.433 129.697C118.433 130.219 118.353 130.48 118.192 130.48C115.295 130.48 113.163 130.741 111.795 131.263C110.427 131.785 109.461 132.698 108.898 134.003C108.415 135.221 108.174 137.135 108.174 139.745V199.906C108.174 202.516 108.415 204.474 108.898 205.779C109.381 206.997 110.306 207.823 111.674 208.258C113.042 208.693 115.214 208.911 118.192 208.911C118.353 208.911 118.433 209.172 118.433 209.694C118.433 210.216 118.353 210.477 118.192 210.477C115.375 210.477 113.122 210.433 111.433 210.346L100.932 210.216L91.8797 210.346C90.2704 210.433 88.0577 210.477 85.2414 210.477C85.0805 210.477 85 210.216 85 209.694C85 209.172 85.0805 208.911 85.2414 208.911C88.0577 208.911 90.1095 208.693 91.3969 208.258C92.6844 207.823 93.5695 206.997 94.0523 205.779C94.5351 204.474 94.7765 202.516 94.7765 199.906V139.484Z" fill="white"/>
<path d="M192.622 176.938H227.383L228.228 180.592H190.812L192.622 176.938ZM256.712 208.911C257.114 208.911 257.316 209.172 257.316 209.694C257.316 210.216 257.114 210.477 256.712 210.477C255.103 210.477 252.608 210.39 249.229 210.216C245.688 210.042 243.154 209.955 241.625 209.955C239.613 209.955 237.159 210.042 234.262 210.216C231.527 210.39 229.354 210.477 227.745 210.477C227.423 210.477 227.262 210.216 227.262 209.694C227.262 209.172 227.423 208.911 227.745 208.911C229.837 208.911 231.326 208.693 232.211 208.258C233.176 207.736 233.659 206.866 233.659 205.648C233.659 204.169 232.854 201.69 231.245 198.21L206.744 145.879L212.658 134.656L188.639 191.946C187.593 194.469 187.07 196.818 187.07 198.993C187.07 202.125 188.076 204.561 190.087 206.301C192.179 208.041 194.956 208.911 198.416 208.911C198.818 208.911 199.019 209.172 199.019 209.694C199.019 210.216 198.818 210.477 198.416 210.477C196.967 210.477 194.875 210.39 192.139 210.216C189.082 210.042 186.426 209.955 184.173 209.955C182.001 209.955 179.386 210.042 176.328 210.216C173.592 210.39 171.379 210.477 169.69 210.477C169.368 210.477 169.207 210.216 169.207 209.694C169.207 209.172 169.368 208.911 169.69 208.911C171.943 208.911 173.834 208.432 175.362 207.475C176.891 206.431 178.42 204.648 179.949 202.125C181.478 199.515 183.288 195.687 185.38 190.641L211.571 128.392C211.732 128.131 212.094 128 212.658 128C213.301 128 213.664 128.131 213.744 128.392L243.918 192.598C246.735 198.775 249.068 203.038 250.919 205.387C252.769 207.736 254.701 208.911 256.712 208.911Z" fill="white"/>
<path d="M268.277 131.915L271.898 132.176V193.903C271.898 198.514 272.783 202.168 274.554 204.865C276.324 207.562 278.778 208.911 281.916 208.911C282.077 208.911 282.157 209.172 282.157 209.694C282.157 210.216 282.077 210.477 281.916 210.477C279.663 210.477 277.933 210.433 276.726 210.346L270.208 210.216L262.725 210.346C261.357 210.433 259.386 210.477 256.811 210.477C256.57 210.477 256.449 210.216 256.449 209.694C256.449 209.172 256.57 208.911 256.811 208.911C260.352 208.911 263.128 207.562 265.139 204.865C267.231 202.168 268.277 198.514 268.277 193.903V131.915ZM329.833 212.434C329.833 212.695 329.632 212.869 329.229 212.956C328.907 213.043 328.666 213 328.505 212.826L269.002 139.615C266.185 136.135 263.771 133.742 261.76 132.437C259.748 131.132 257.696 130.48 255.604 130.48C255.443 130.48 255.363 130.219 255.363 129.697C255.363 129.175 255.443 128.914 255.604 128.914L260.673 129.044C261.719 129.131 263.248 129.175 265.26 129.175L274.433 129.044C275.559 128.957 276.927 128.914 278.537 128.914C279.18 128.914 279.663 129.088 279.985 129.436C280.307 129.784 280.87 130.523 281.675 131.654C283.043 133.655 284.008 135.004 284.571 135.7L328.867 190.902L329.833 212.434ZM329.833 212.434L326.333 208.519V145.618C326.333 140.92 325.447 137.222 323.677 134.525C321.907 131.828 319.453 130.48 316.315 130.48C316.154 130.48 316.073 130.219 316.073 129.697C316.073 129.175 316.154 128.914 316.315 128.914L321.505 129.044C324.08 129.218 326.252 129.305 328.022 129.305C329.632 129.305 331.885 129.218 334.781 129.044L340.213 128.914C340.374 128.914 340.454 129.175 340.454 129.697C340.454 130.219 340.374 130.48 340.213 130.48C336.994 130.48 334.459 131.872 332.609 134.656C330.758 137.353 329.833 141.007 329.833 145.618V212.434Z" fill="white"/>
<path d="M377.43 210.999C374.855 210.999 371.797 210.868 368.257 210.607C366.969 210.52 365.36 210.433 363.429 210.346C361.578 210.259 359.486 210.216 357.153 210.216L348.221 210.346C346.612 210.433 344.439 210.477 341.703 210.477C341.543 210.477 341.462 210.216 341.462 209.694C341.462 209.172 341.543 208.911 341.703 208.911C344.278 208.911 346.169 208.693 347.376 208.258C348.583 207.823 349.388 206.997 349.79 205.779C350.273 204.474 350.514 202.516 350.514 199.906V139.484C350.514 136.874 350.273 134.96 349.79 133.742C349.388 132.524 348.583 131.698 347.376 131.263C346.25 130.741 344.439 130.48 341.945 130.48C341.703 130.48 341.583 130.219 341.583 129.697C341.583 129.175 341.703 128.914 341.945 128.914L348.342 129.044C352.043 129.218 354.98 129.305 357.153 129.305C360.452 129.305 363.831 129.175 367.291 128.914C371.475 128.74 374.292 128.653 375.74 128.653C383.867 128.653 391.069 130.393 397.345 133.873C403.701 137.353 408.61 142.094 412.07 148.097C415.53 154.1 417.26 160.843 417.26 168.325C417.26 176.764 415.449 184.246 411.828 190.771C408.288 197.209 403.46 202.212 397.345 205.779C391.31 209.259 384.672 210.999 377.43 210.999ZM376.223 207.997C381.373 207.997 385.919 206.605 389.862 203.821C393.804 200.95 396.862 196.731 399.035 191.163C401.288 185.595 402.414 178.939 402.414 171.196C402.414 163.801 401.368 157.102 399.276 151.099C397.184 145.009 394.207 140.224 390.344 136.744C386.482 133.264 382.016 131.524 376.947 131.524C371.958 131.524 368.538 132.046 366.688 133.09C364.837 134.134 363.912 136.352 363.912 139.745V198.471C363.912 201.951 364.757 204.43 366.446 205.909C368.136 207.301 371.395 207.997 376.223 207.997Z" fill="white"/>
<path d="M434.891 131.915L438.391 132.176L437.063 193.903C436.983 198.601 437.828 202.299 439.598 204.996C441.449 207.606 444.024 208.911 447.323 208.911C447.564 208.911 447.685 209.172 447.685 209.694C447.685 210.216 447.564 210.477 447.323 210.477C445.15 210.477 443.46 210.433 442.253 210.346L435.615 210.216L428.011 210.346C426.724 210.433 424.994 210.477 422.821 210.477C422.58 210.477 422.459 210.216 422.459 209.694C422.459 209.172 422.58 208.911 422.821 208.911C426.12 208.911 428.735 207.562 430.667 204.865C432.598 202.168 433.604 198.514 433.684 193.903L434.891 131.915ZM520.103 208.911C520.264 208.911 520.344 209.172 520.344 209.694C520.344 210.216 520.264 210.477 520.103 210.477C517.367 210.477 515.195 210.433 513.585 210.346L504.654 210.216L495.602 210.346C494.073 210.433 491.981 210.477 489.325 210.477C489.084 210.477 488.963 210.216 488.963 209.694C488.963 209.172 489.084 208.911 489.325 208.911C491.9 208.911 493.791 208.693 494.998 208.258C496.285 207.736 497.13 206.866 497.533 205.648C497.935 204.43 498.056 202.516 497.895 199.906L495.119 141.964L501.274 131.524L470.497 209.563C470.336 209.911 470.014 210.085 469.531 210.085C469.048 210.085 468.726 209.911 468.565 209.563L434.65 139.745C433.04 136.526 431.35 134.177 429.58 132.698C427.891 131.219 425.919 130.48 423.666 130.48C423.425 130.48 423.304 130.219 423.304 129.697C423.304 129.175 423.425 128.914 423.666 128.914L429.339 129.044C430.465 129.131 431.914 129.175 433.684 129.175L440.081 129.044C440.805 128.957 441.73 128.914 442.857 128.914C443.903 128.914 444.708 129.305 445.271 130.088C445.834 130.871 446.88 132.742 448.409 135.7L475.445 190.51L469.41 202.255L497.653 132.176C498.136 130.958 498.619 130.132 499.102 129.697C499.665 129.175 500.389 128.914 501.274 128.914C501.998 128.914 502.803 128.957 503.688 129.044C504.654 129.131 505.74 129.175 506.947 129.175L514.068 129.044C515.195 128.957 516.804 128.914 518.896 128.914C519.137 128.914 519.258 129.175 519.258 129.697C519.258 130.219 519.137 130.48 518.896 130.48C515.114 130.48 512.378 131.306 510.689 132.959C508.999 134.612 508.234 137.179 508.395 140.659L511.292 199.906C511.453 202.603 511.735 204.561 512.137 205.779C512.62 206.997 513.424 207.823 514.551 208.258C515.758 208.693 517.609 208.911 520.103 208.911Z" fill="white"/>
<path d="M541.879 176.938H576.64L577.485 180.592H540.069L541.879 176.938ZM605.969 208.911C606.372 208.911 606.573 209.172 606.573 209.694C606.573 210.216 606.372 210.477 605.969 210.477C604.36 210.477 601.866 210.39 598.486 210.216C594.946 210.042 592.411 209.955 590.882 209.955C588.871 209.955 586.416 210.042 583.52 210.216C580.784 210.39 578.611 210.477 577.002 210.477C576.68 210.477 576.519 210.216 576.519 209.694C576.519 209.172 576.68 208.911 577.002 208.911C579.094 208.911 580.583 208.693 581.468 208.258C582.433 207.736 582.916 206.866 582.916 205.648C582.916 204.169 582.112 201.69 580.502 198.21L556.001 145.879L561.915 134.656L537.896 191.946C536.85 194.469 536.327 196.818 536.327 198.993C536.327 202.125 537.333 204.561 539.345 206.301C541.437 208.041 544.213 208.911 547.673 208.911C548.075 208.911 548.276 209.172 548.276 209.694C548.276 210.216 548.075 210.477 547.673 210.477C546.224 210.477 544.132 210.39 541.396 210.216C538.339 210.042 535.684 209.955 533.431 209.955C531.258 209.955 528.643 210.042 525.585 210.216C522.849 210.39 520.637 210.477 518.947 210.477C518.625 210.477 518.464 210.216 518.464 209.694C518.464 209.172 518.625 208.911 518.947 208.911C521.2 208.911 523.091 208.432 524.62 207.475C526.148 206.431 527.677 204.648 529.206 202.125C530.735 199.515 532.545 195.687 534.637 190.641L560.829 128.392C560.99 128.131 561.352 128 561.915 128C562.559 128 562.921 128.131 563.001 128.392L593.176 192.598C595.992 198.775 598.325 203.038 600.176 205.387C602.027 207.736 603.958 208.911 605.969 208.911Z" fill="white"/>
<path d="M641.553 210.999C638.978 210.999 635.921 210.868 632.38 210.607C631.093 210.52 629.484 210.433 627.552 210.346C625.702 210.259 623.61 210.216 621.276 210.216L612.345 210.346C610.735 210.433 608.563 210.477 605.827 210.477C605.666 210.477 605.586 210.216 605.586 209.694C605.586 209.172 605.666 208.911 605.827 208.911C608.402 208.911 610.293 208.693 611.5 208.258C612.707 207.823 613.511 206.997 613.914 205.779C614.397 204.474 614.638 202.516 614.638 199.906V139.484C614.638 136.874 614.397 134.96 613.914 133.742C613.511 132.524 612.707 131.698 611.5 131.263C610.373 130.741 608.563 130.48 606.068 130.48C605.827 130.48 605.706 130.219 605.706 129.697C605.706 129.175 605.827 128.914 606.068 128.914L612.465 129.044C616.167 129.218 619.104 129.305 621.276 129.305C624.575 129.305 627.955 129.175 631.415 128.914C635.599 128.74 638.415 128.653 639.864 128.653C647.99 128.653 655.192 130.393 661.468 133.873C667.825 137.353 672.733 142.094 676.193 148.097C679.653 154.1 681.383 160.843 681.383 168.325C681.383 176.764 679.573 184.246 675.952 190.771C672.411 197.209 667.584 202.212 661.468 205.779C655.433 209.259 648.795 210.999 641.553 210.999ZM640.346 207.997C645.496 207.997 650.042 206.605 653.985 203.821C657.928 200.95 660.986 196.731 663.158 191.163C665.411 185.595 666.538 178.939 666.538 171.196C666.538 163.801 665.492 157.102 663.399 151.099C661.307 145.009 658.33 140.224 654.468 136.744C650.606 133.264 646.14 131.524 641.071 131.524C636.082 131.524 632.662 132.046 630.811 133.09C628.961 134.134 628.035 136.352 628.035 139.745V198.471C628.035 201.951 628.88 204.43 630.57 205.909C632.26 207.301 635.518 207.997 640.346 207.997Z" fill="white"/>
<path d="M688.635 210.477C688.393 210.477 688.272 210.216 688.272 209.694C688.272 209.172 688.393 208.911 688.635 208.911C691.209 208.911 693.06 208.693 694.187 208.258C695.394 207.823 696.198 206.997 696.601 205.779C697.003 204.474 697.204 202.516 697.204 199.906V139.484C697.204 136.874 697.003 134.96 696.601 133.742C696.198 132.524 695.394 131.698 694.187 131.263C692.98 130.741 691.129 130.48 688.635 130.48C688.393 130.48 688.272 130.219 688.272 129.697C688.272 129.175 688.393 128.914 688.635 128.914H739.81C740.615 128.914 741.017 129.305 741.017 130.088L741.258 147.445C741.258 147.619 741.017 147.749 740.534 147.836C740.132 147.923 739.891 147.836 739.81 147.575C738.523 142.529 736.35 138.788 733.292 136.352C730.235 133.916 726.212 132.698 721.223 132.698H717.602C715.188 132.698 713.418 133.264 712.291 134.395C711.165 135.526 710.601 137.266 710.601 139.615V199.384C710.601 201.907 711.044 203.778 711.929 204.996C712.814 206.214 714.222 206.823 716.153 206.823H720.136C726.413 206.823 731.442 205.431 735.224 202.647C739.005 199.863 741.781 195.556 743.552 189.727C743.552 189.553 743.713 189.466 744.034 189.466C744.276 189.466 744.477 189.553 744.638 189.727C744.879 189.814 745 189.901 745 189.988C744.195 196.774 743.793 202.951 743.793 208.519C743.793 209.215 743.672 209.737 743.431 210.085C743.19 210.346 742.707 210.477 741.983 210.477H688.635ZM735.224 181.375C735.224 177.808 733.936 175.024 731.361 173.023C728.867 170.935 725.246 169.891 720.499 169.891H704.204V166.237H720.619C725.286 166.237 728.867 165.367 731.361 163.627C733.856 161.887 735.103 159.451 735.103 156.319C735.103 156.058 735.304 155.927 735.706 155.927C736.189 155.927 736.43 156.058 736.43 156.319L736.31 168.064L736.43 174.328C736.591 177.286 736.672 179.635 736.672 181.375C736.672 181.549 736.431 181.636 735.948 181.636C735.465 181.636 735.224 181.549 735.224 181.375Z" fill="white"/>
<path d="M122.042 93.2244C161.358 118.891 171.783 156.652 149.444 188.809C149.444 188.809 133.36 213 81.8333 213C24.0513 213 1.71292 197.954 1.71292 197.954V141.312H4.39353C9.15905 161.373 35.0716 210.345 81.8333 210.345C113.703 210.345 122.638 171.108 86.8966 144.852L41.0285 116.235C-1.26553 89.9792 -11.6901 53.9875 13.6267 22.4211C13.6267 22.4211 30.0082 0 78.8548 0C129.786 0 149.444 13.5706 149.444 13.5706V63.133H146.764C140.807 41.892 126.51 2.65513 78.8548 2.65513C46.6875 2.65513 37.4543 38.0568 76.1742 63.133L122.042 93.2244Z" fill="white" fill-opacity="0.3"/>
<path d="M296.622 210.345C331.767 210.345 332.959 189.104 332.959 107.975C332.959 27.1413 331.767 2.65513 296.622 2.65513C261.178 2.65513 259.689 27.1413 259.689 107.975C259.689 189.104 261.178 210.345 296.622 210.345ZM296.622 0C362.147 0 405.335 49.5623 405.335 107.975C405.335 166.683 362.147 213 296.622 213C231.096 213 187.908 166.683 187.908 107.975C187.908 49.5623 231.096 0 296.622 0Z" fill="white" fill-opacity="0.3"/>
<path d="M538.265 2.65513H628.512V5.01524C615.704 5.01524 596.642 14.1607 573.41 66.0831L514.735 210.345H506.097C426.275 36.5817 422.105 28.9114 422.105 28.9114C411.383 5.31025 406.915 5.60528 398.575 5.01524V2.65513H497.758V5.01524C477.206 5.01524 493.588 39.2368 493.588 39.2368L539.754 141.017L570.432 66.0831C579.367 44.2521 574.006 5.01524 538.265 5.01524V2.65513Z" fill="white" fill-opacity="0.3"/>
<path d="M721.989 150.457L692.204 84.0789L665.696 150.457H721.989ZM662.122 153.112L722.286 2.65513H723.776C799.13 173.763 804.194 183.499 804.194 183.499C814.916 207.1 825.043 207.395 831 207.985V210.345H726.754V207.985C750.582 207.985 732.711 173.468 732.711 173.468L723.18 153.112H664.802C658.845 166.683 664.207 207.985 699.948 207.985V210.345H614.169V207.985C623.104 207.395 639.188 205.035 662.122 153.112Z" fill="white" fill-opacity="0.3"/>
</svg>
