<svg width="67" height="34" viewBox="0 0 67 34" fill="none" xmlns="http://www.w3.org/2000/svg">
<path d="M7.26584 6.924C7.26584 7.5 7.40984 8.012 7.69784 8.46C8.00184 8.908 8.36984 9.3 8.80184 9.636C9.23384 9.972 9.81784 10.38 10.5538 10.86C11.3538 11.372 11.9938 11.82 12.4738 12.204C12.9538 12.588 13.3618 13.06 13.6978 13.62C14.0338 14.164 14.2018 14.796 14.2018 15.516C14.2018 16.348 13.9778 17.092 13.5298 17.748C13.0818 18.388 12.4578 18.892 11.6578 19.26C10.8738 19.612 9.99384 19.788 9.01784 19.788C8.31384 19.788 7.56184 19.692 6.76184 19.5C5.97784 19.292 5.44984 19.068 5.17784 18.828C5.09784 18.764 5.03384 18.708 4.98584 18.66C4.95384 18.596 4.93784 18.5 4.93784 18.372L4.86584 14.556V14.532C4.86584 14.468 4.90584 14.436 4.98584 14.436C5.06584 14.42 5.11384 14.444 5.12984 14.508C5.60984 15.484 6.02584 16.276 6.37784 16.884C6.74584 17.492 7.20184 18.028 7.74584 18.492C8.30584 18.956 8.93784 19.188 9.64184 19.188C10.2818 19.188 10.8098 19.02 11.2258 18.684C11.6418 18.332 11.8498 17.74 11.8498 16.908C11.8498 16.204 11.6898 15.588 11.3698 15.06C11.0658 14.532 10.6898 14.084 10.2418 13.716C9.79384 13.348 9.17784 12.908 8.39384 12.396C7.62584 11.9 7.02584 11.476 6.59384 11.124C6.17784 10.772 5.81784 10.348 5.51384 9.852C5.20984 9.356 5.05784 8.772 5.05784 8.1C5.05784 7.252 5.29784 6.54 5.77784 5.964C6.27384 5.372 6.90584 4.94 7.67384 4.668C8.44184 4.38 9.24984 4.236 10.0978 4.236C10.6578 4.236 11.2258 4.292 11.8018 4.404C12.3778 4.5 12.8418 4.62 13.1938 4.764C13.3378 4.828 13.4338 4.9 13.4818 4.98C13.5298 5.044 13.5538 5.132 13.5538 5.244V8.772C13.5538 8.82 13.5138 8.86 13.4338 8.892C13.3538 8.908 13.3058 8.892 13.2898 8.844L13.0978 8.388C12.6978 7.38 12.2258 6.524 11.6818 5.82C11.1538 5.116 10.4098 4.764 9.44984 4.764C8.80984 4.764 8.28184 4.948 7.86584 5.316C7.46584 5.684 7.26584 6.22 7.26584 6.924ZM24.2254 19.788C22.7374 19.788 21.4094 19.444 20.2414 18.756C19.0894 18.052 18.1934 17.108 17.5534 15.924C16.9294 14.724 16.6174 13.42 16.6174 12.012C16.6174 10.364 17.0334 8.956 17.8654 7.788C18.6974 6.604 19.7614 5.716 21.0574 5.124C22.3694 4.532 23.7054 4.236 25.0654 4.236C26.5854 4.236 27.9214 4.596 29.0734 5.316C30.2254 6.02 31.1054 6.956 31.7134 8.124C32.3374 9.292 32.6494 10.532 32.6494 11.844C32.6494 13.3 32.2654 14.636 31.4974 15.852C30.7294 17.068 29.6974 18.028 28.4014 18.732C27.1214 19.436 25.7294 19.788 24.2254 19.788ZM25.0174 19.188C25.9134 19.188 26.7134 18.932 27.4174 18.42C28.1374 17.892 28.6974 17.132 29.0974 16.14C29.4974 15.132 29.6974 13.932 29.6974 12.54C29.6974 11.068 29.4734 9.756 29.0254 8.604C28.5774 7.436 27.9294 6.524 27.0814 5.868C26.2334 5.212 25.2414 4.884 24.1054 4.884C22.6494 4.884 21.5294 5.436 20.7454 6.54C19.9614 7.628 19.5694 9.156 19.5694 11.124C19.5694 12.676 19.8014 14.068 20.2654 15.3C20.7454 16.516 21.3934 17.468 22.2094 18.156C23.0414 18.844 23.9774 19.188 25.0174 19.188ZM49.2139 4.5C49.2619 4.5 49.2859 4.548 49.2859 4.644C49.2859 4.74 49.2619 4.788 49.2139 4.788C48.6379 4.788 48.0859 5.044 47.5579 5.556C47.0299 6.068 46.6059 6.756 46.2859 7.62L41.8459 19.476C41.8299 19.54 41.7419 19.572 41.5819 19.572C41.4219 19.572 41.3339 19.54 41.3179 19.476L35.1979 6.492C34.9099 5.916 34.6219 5.492 34.3339 5.22C34.0459 4.932 33.7259 4.788 33.3739 4.788C33.3259 4.788 33.3019 4.74 33.3019 4.644C33.3019 4.548 33.3259 4.5 33.3739 4.5C33.6139 4.5 33.7819 4.508 33.8779 4.524C34.1979 4.556 34.6139 4.572 35.1259 4.572C36.5019 4.572 37.6699 4.556 38.6299 4.524C38.8859 4.508 39.2059 4.5 39.5899 4.5C39.6379 4.5 39.6619 4.548 39.6619 4.644C39.6619 4.74 39.6379 4.788 39.5899 4.788C39.1099 4.788 38.7339 4.892 38.4619 5.1C38.2059 5.292 38.0779 5.572 38.0779 5.94C38.0779 6.212 38.1659 6.54 38.3419 6.924L42.7099 16.236L41.5819 18.204L45.6139 7.548C45.7739 7.1 45.8539 6.716 45.8539 6.396C45.8539 5.9 45.7019 5.508 45.3979 5.22C45.1099 4.932 44.6859 4.788 44.1259 4.788C44.0779 4.788 44.0539 4.74 44.0539 4.644C44.0539 4.548 44.0779 4.5 44.1259 4.5L45.3019 4.524C45.9739 4.556 46.5739 4.572 47.1019 4.572C47.4059 4.572 47.7819 4.556 48.2299 4.524L49.2139 4.5ZM51.1945 13.332H58.1065L58.2745 14.004H50.8345L51.1945 13.332ZM63.9385 19.212C64.0185 19.212 64.0585 19.26 64.0585 19.356C64.0585 19.452 64.0185 19.5 63.9385 19.5C63.6185 19.5 63.1225 19.484 62.4505 19.452C61.7465 19.42 61.2425 19.404 60.9385 19.404C60.5385 19.404 60.0505 19.42 59.4745 19.452C58.9305 19.484 58.4985 19.5 58.1785 19.5C58.1145 19.5 58.0825 19.452 58.0825 19.356C58.0825 19.26 58.1145 19.212 58.1785 19.212C58.5945 19.212 58.8905 19.172 59.0665 19.092C59.2585 18.996 59.3545 18.836 59.3545 18.612C59.3545 18.34 59.1945 17.884 58.8745 17.244L54.0025 7.62L55.1785 5.556L50.4025 16.092C50.1945 16.556 50.0905 16.988 50.0905 17.388C50.0905 17.964 50.2905 18.412 50.6905 18.732C51.1065 19.052 51.6585 19.212 52.3465 19.212C52.4265 19.212 52.4665 19.26 52.4665 19.356C52.4665 19.452 52.4265 19.5 52.3465 19.5C52.0585 19.5 51.6425 19.484 51.0985 19.452C50.4905 19.42 49.9625 19.404 49.5145 19.404C49.0825 19.404 48.5625 19.42 47.9545 19.452C47.4105 19.484 46.9705 19.5 46.6345 19.5C46.5705 19.5 46.5385 19.452 46.5385 19.356C46.5385 19.26 46.5705 19.212 46.6345 19.212C47.0825 19.212 47.4585 19.124 47.7625 18.948C48.0665 18.756 48.3705 18.428 48.6745 17.964C48.9785 17.484 49.3385 16.78 49.7545 15.852L54.9625 4.404C54.9945 4.356 55.0665 4.332 55.1785 4.332C55.3065 4.332 55.3785 4.356 55.3945 4.404L61.3945 16.212C61.9545 17.348 62.4185 18.132 62.7865 18.564C63.1545 18.996 63.5385 19.212 63.9385 19.212Z" fill="black"/>
<path d="M9.003 25.538C9.003 25.318 8.981 25.1567 8.937 25.054C8.893 24.944 8.80867 24.867 8.684 24.823C8.55933 24.779 8.36133 24.757 8.09 24.757C8.068 24.757 8.057 24.735 8.057 24.691C8.057 24.647 8.068 24.625 8.09 24.625L8.629 24.636C8.99567 24.6507 9.32567 24.658 9.619 24.658C9.817 24.658 10.0993 24.6507 10.466 24.636L11.082 24.625C11.104 24.625 11.115 24.647 11.115 24.691C11.115 24.735 11.104 24.757 11.082 24.757C10.8327 24.757 10.6457 24.779 10.521 24.823C10.4037 24.8597 10.323 24.9293 10.279 25.032C10.2423 25.1347 10.224 25.296 10.224 25.516V30.609C10.224 30.829 10.2423 30.994 10.279 31.104C10.323 31.2067 10.4037 31.2763 10.521 31.313C10.6383 31.3497 10.8253 31.368 11.082 31.368C11.104 31.368 11.115 31.39 11.115 31.434C11.115 31.478 11.104 31.5 11.082 31.5C10.8253 31.5 10.62 31.4963 10.466 31.489L9.619 31.478L8.629 31.489C8.497 31.4963 8.31733 31.5 8.09 31.5C8.068 31.5 8.057 31.478 8.057 31.434C8.057 31.39 8.068 31.368 8.09 31.368C8.36133 31.368 8.55933 31.3497 8.684 31.313C8.80867 31.2763 8.893 31.2067 8.937 31.104C8.981 31.0013 9.003 30.8363 9.003 30.609V25.538ZM4.801 27.771H9.564V28.079H4.801V27.771ZM4.229 25.516C4.229 25.296 4.207 25.1347 4.163 25.032C4.119 24.9293 4.03833 24.8597 3.921 24.823C3.811 24.779 3.63133 24.757 3.382 24.757C3.36 24.757 3.349 24.735 3.349 24.691C3.349 24.647 3.36 24.625 3.382 24.625L3.976 24.636C4.31333 24.6507 4.58467 24.658 4.79 24.658C5.06867 24.658 5.39133 24.6507 5.758 24.636L6.363 24.625C6.37767 24.625 6.385 24.647 6.385 24.691C6.385 24.735 6.37767 24.757 6.363 24.757C6.099 24.757 5.90467 24.779 5.78 24.823C5.65533 24.867 5.56733 24.944 5.516 25.054C5.472 25.1567 5.45 25.318 5.45 25.538V30.609C5.45 30.829 5.472 30.994 5.516 31.104C5.56 31.2067 5.64433 31.2763 5.769 31.313C5.89367 31.3497 6.09167 31.368 6.363 31.368C6.37767 31.368 6.385 31.39 6.385 31.434C6.385 31.478 6.37767 31.5 6.363 31.5C6.10633 31.5 5.901 31.4963 5.747 31.489L4.79 31.478L3.965 31.489C3.81833 31.4963 3.61667 31.5 3.36 31.5C3.34533 31.5 3.338 31.478 3.338 31.434C3.338 31.39 3.34533 31.368 3.36 31.368C3.61667 31.368 3.80367 31.3497 3.921 31.313C4.03833 31.2763 4.119 31.2067 4.163 31.104C4.207 30.994 4.229 30.829 4.229 30.609V25.516ZM13.1464 28.673H16.3144L16.3914 28.981H12.9814L13.1464 28.673ZM18.9874 31.368C19.0241 31.368 19.0424 31.39 19.0424 31.434C19.0424 31.478 19.0241 31.5 18.9874 31.5C18.8407 31.5 18.6134 31.4927 18.3054 31.478C17.9827 31.4633 17.7517 31.456 17.6124 31.456C17.4291 31.456 17.2054 31.4633 16.9414 31.478C16.6921 31.4927 16.4941 31.5 16.3474 31.5C16.3181 31.5 16.3034 31.478 16.3034 31.434C16.3034 31.39 16.3181 31.368 16.3474 31.368C16.5381 31.368 16.6737 31.3497 16.7544 31.313C16.8424 31.269 16.8864 31.1957 16.8864 31.093C16.8864 30.9683 16.8131 30.7593 16.6664 30.466L14.4334 26.055L14.9724 25.109L12.7834 29.938C12.6881 30.1507 12.6404 30.3487 12.6404 30.532C12.6404 30.796 12.7321 31.0013 12.9154 31.148C13.1061 31.2947 13.3591 31.368 13.6744 31.368C13.7111 31.368 13.7294 31.39 13.7294 31.434C13.7294 31.478 13.7111 31.5 13.6744 31.5C13.5424 31.5 13.3517 31.4927 13.1024 31.478C12.8237 31.4633 12.5817 31.456 12.3764 31.456C12.1784 31.456 11.9401 31.4633 11.6614 31.478C11.4121 31.4927 11.2104 31.5 11.0564 31.5C11.0271 31.5 11.0124 31.478 11.0124 31.434C11.0124 31.39 11.0271 31.368 11.0564 31.368C11.2617 31.368 11.4341 31.3277 11.5734 31.247C11.7127 31.159 11.8521 31.0087 11.9914 30.796C12.1307 30.576 12.2957 30.2533 12.4864 29.828L14.8734 24.581C14.8881 24.559 14.9211 24.548 14.9724 24.548C15.0311 24.548 15.0641 24.559 15.0714 24.581L17.8214 29.993C18.0781 30.5137 18.2907 30.873 18.4594 31.071C18.6281 31.269 18.8041 31.368 18.9874 31.368ZM20.0414 24.878L20.3714 24.9V30.103C20.3714 30.4917 20.4521 30.7997 20.6134 31.027C20.7747 31.2543 20.9984 31.368 21.2844 31.368C21.2991 31.368 21.3064 31.39 21.3064 31.434C21.3064 31.478 21.2991 31.5 21.2844 31.5C21.0791 31.5 20.9214 31.4963 20.8114 31.489L20.2174 31.478L19.5354 31.489C19.4107 31.4963 19.2311 31.5 18.9964 31.5C18.9744 31.5 18.9634 31.478 18.9634 31.434C18.9634 31.39 18.9744 31.368 18.9964 31.368C19.3191 31.368 19.5721 31.2543 19.7554 31.027C19.9461 30.7997 20.0414 30.4917 20.0414 30.103V24.878ZM25.6514 31.665C25.6514 31.687 25.6331 31.7017 25.5964 31.709C25.5671 31.7163 25.5451 31.7127 25.5304 31.698L20.1074 25.527C19.8507 25.2337 19.6307 25.032 19.4474 24.922C19.2641 24.812 19.0771 24.757 18.8864 24.757C18.8717 24.757 18.8644 24.735 18.8644 24.691C18.8644 24.647 18.8717 24.625 18.8864 24.625L19.3484 24.636C19.4437 24.6433 19.5831 24.647 19.7664 24.647L20.6024 24.636C20.7051 24.6287 20.8297 24.625 20.9764 24.625C21.0351 24.625 21.0791 24.6397 21.1084 24.669C21.1377 24.6983 21.1891 24.7607 21.2624 24.856C21.3871 25.0247 21.4751 25.1383 21.5264 25.197L25.5634 29.85L25.6514 31.665ZM25.6514 31.665L25.3324 31.335V26.033C25.3324 25.637 25.2517 25.3253 25.0904 25.098C24.9291 24.8707 24.7054 24.757 24.4194 24.757C24.4047 24.757 24.3974 24.735 24.3974 24.691C24.3974 24.647 24.4047 24.625 24.4194 24.625L24.8924 24.636C25.1271 24.6507 25.3251 24.658 25.4864 24.658C25.6331 24.658 25.8384 24.6507 26.1024 24.636L26.5974 24.625C26.6121 24.625 26.6194 24.647 26.6194 24.691C26.6194 24.735 26.6121 24.757 26.5974 24.757C26.3041 24.757 26.0731 24.8743 25.9044 25.109C25.7357 25.3363 25.6514 25.6443 25.6514 26.033V31.665ZM29.9893 31.544C29.7546 31.544 29.4759 31.533 29.1533 31.511C29.0359 31.5037 28.8893 31.4963 28.7133 31.489C28.5446 31.4817 28.3539 31.478 28.1413 31.478L27.3273 31.489C27.1806 31.4963 26.9826 31.5 26.7333 31.5C26.7186 31.5 26.7113 31.478 26.7113 31.434C26.7113 31.39 26.7186 31.368 26.7333 31.368C26.9679 31.368 27.1403 31.3497 27.2503 31.313C27.3603 31.2763 27.4336 31.2067 27.4703 31.104C27.5143 30.994 27.5363 30.829 27.5363 30.609V25.516C27.5363 25.296 27.5143 25.1347 27.4703 25.032C27.4336 24.9293 27.3603 24.8597 27.2503 24.823C27.1476 24.779 26.9826 24.757 26.7553 24.757C26.7333 24.757 26.7223 24.735 26.7223 24.691C26.7223 24.647 26.7333 24.625 26.7553 24.625L27.3383 24.636C27.6756 24.6507 27.9433 24.658 28.1413 24.658C28.4419 24.658 28.7499 24.647 29.0653 24.625C29.4466 24.6103 29.7033 24.603 29.8353 24.603C30.5759 24.603 31.2323 24.7497 31.8043 25.043C32.3836 25.3363 32.8309 25.736 33.1463 26.242C33.4616 26.748 33.6193 27.3163 33.6193 27.947C33.6193 28.6583 33.4543 29.289 33.1243 29.839C32.8016 30.3817 32.3616 30.8033 31.8043 31.104C31.2543 31.3973 30.6493 31.544 29.9893 31.544ZM29.8793 31.291C30.3486 31.291 30.7629 31.1737 31.1223 30.939C31.4816 30.697 31.7603 30.3413 31.9583 29.872C32.1636 29.4027 32.2663 28.8417 32.2663 28.189C32.2663 27.5657 32.1709 27.001 31.9803 26.495C31.7896 25.9817 31.5183 25.5783 31.1663 25.285C30.8143 24.9917 30.4073 24.845 29.9453 24.845C29.4906 24.845 29.1789 24.889 29.0103 24.977C28.8416 25.065 28.7573 25.252 28.7573 25.538V30.488C28.7573 30.7813 28.8343 30.9903 28.9883 31.115C29.1423 31.2323 29.4393 31.291 29.8793 31.291ZM35.2261 24.878L35.5451 24.9L35.4241 30.103C35.4168 30.499 35.4938 30.8107 35.6551 31.038C35.8238 31.258 36.0585 31.368 36.3591 31.368C36.3811 31.368 36.3921 31.39 36.3921 31.434C36.3921 31.478 36.3811 31.5 36.3591 31.5C36.1611 31.5 36.0071 31.4963 35.8971 31.489L35.2921 31.478L34.5991 31.489C34.4818 31.4963 34.3241 31.5 34.1261 31.5C34.1041 31.5 34.0931 31.478 34.0931 31.434C34.0931 31.39 34.1041 31.368 34.1261 31.368C34.4268 31.368 34.6651 31.2543 34.8411 31.027C35.0171 30.7997 35.1088 30.4917 35.1161 30.103L35.2261 24.878ZM42.9921 31.368C43.0068 31.368 43.0141 31.39 43.0141 31.434C43.0141 31.478 43.0068 31.5 42.9921 31.5C42.7428 31.5 42.5448 31.4963 42.3981 31.489L41.5841 31.478L40.7591 31.489C40.6198 31.4963 40.4291 31.5 40.1871 31.5C40.1651 31.5 40.1541 31.478 40.1541 31.434C40.1541 31.39 40.1651 31.368 40.1871 31.368C40.4218 31.368 40.5941 31.3497 40.7041 31.313C40.8215 31.269 40.8985 31.1957 40.9351 31.093C40.9718 30.9903 40.9828 30.829 40.9681 30.609L40.7151 25.725L41.2761 24.845L38.4711 31.423C38.4565 31.4523 38.4271 31.467 38.3831 31.467C38.3391 31.467 38.3098 31.4523 38.2951 31.423L35.2041 25.538C35.0575 25.2667 34.9035 25.0687 34.7421 24.944C34.5881 24.8193 34.4085 24.757 34.2031 24.757C34.1811 24.757 34.1701 24.735 34.1701 24.691C34.1701 24.647 34.1811 24.625 34.2031 24.625L34.7201 24.636C34.8228 24.6433 34.9548 24.647 35.1161 24.647L35.6991 24.636C35.7651 24.6287 35.8495 24.625 35.9521 24.625C36.0475 24.625 36.1208 24.658 36.1721 24.724C36.2235 24.79 36.3188 24.9477 36.4581 25.197L38.9221 29.817L38.3721 30.807L40.9461 24.9C40.9901 24.7973 41.0341 24.7277 41.0781 24.691C41.1295 24.647 41.1955 24.625 41.2761 24.625C41.3421 24.625 41.4155 24.6287 41.4961 24.636C41.5841 24.6433 41.6831 24.647 41.7931 24.647L42.4421 24.636C42.5448 24.6287 42.6915 24.625 42.8821 24.625C42.9041 24.625 42.9151 24.647 42.9151 24.691C42.9151 24.735 42.9041 24.757 42.8821 24.757C42.5375 24.757 42.2881 24.8267 42.1341 24.966C41.9801 25.1053 41.9105 25.3217 41.9251 25.615L42.1891 30.609C42.2038 30.8363 42.2295 31.0013 42.2661 31.104C42.3101 31.2067 42.3835 31.2763 42.4861 31.313C42.5961 31.3497 42.7648 31.368 42.9921 31.368ZM44.9768 28.673H48.1448L48.2218 28.981H44.8118L44.9768 28.673ZM50.8178 31.368C50.8544 31.368 50.8728 31.39 50.8728 31.434C50.8728 31.478 50.8544 31.5 50.8178 31.5C50.6711 31.5 50.4438 31.4927 50.1358 31.478C49.8131 31.4633 49.5821 31.456 49.4428 31.456C49.2594 31.456 49.0358 31.4633 48.7718 31.478C48.5224 31.4927 48.3244 31.5 48.1778 31.5C48.1484 31.5 48.1338 31.478 48.1338 31.434C48.1338 31.39 48.1484 31.368 48.1778 31.368C48.3684 31.368 48.5041 31.3497 48.5848 31.313C48.6728 31.269 48.7168 31.1957 48.7168 31.093C48.7168 30.9683 48.6434 30.7593 48.4968 30.466L46.2638 26.055L46.8028 25.109L44.6138 29.938C44.5184 30.1507 44.4708 30.3487 44.4708 30.532C44.4708 30.796 44.5624 31.0013 44.7458 31.148C44.9364 31.2947 45.1894 31.368 45.5048 31.368C45.5414 31.368 45.5598 31.39 45.5598 31.434C45.5598 31.478 45.5414 31.5 45.5048 31.5C45.3728 31.5 45.1821 31.4927 44.9328 31.478C44.6541 31.4633 44.4121 31.456 44.2068 31.456C44.0088 31.456 43.7704 31.4633 43.4918 31.478C43.2424 31.4927 43.0408 31.5 42.8868 31.5C42.8574 31.5 42.8428 31.478 42.8428 31.434C42.8428 31.39 42.8574 31.368 42.8868 31.368C43.0921 31.368 43.2644 31.3277 43.4038 31.247C43.5431 31.159 43.6824 31.0087 43.8218 30.796C43.9611 30.576 44.1261 30.2533 44.3168 29.828L46.7038 24.581C46.7184 24.559 46.7514 24.548 46.8028 24.548C46.8614 24.548 46.8944 24.559 46.9018 24.581L49.6518 29.993C49.9084 30.5137 50.1211 30.873 50.2898 31.071C50.4584 31.269 50.6344 31.368 50.8178 31.368ZM54.0608 31.544C53.8261 31.544 53.5475 31.533 53.2248 31.511C53.1075 31.5037 52.9608 31.4963 52.7848 31.489C52.6161 31.4817 52.4255 31.478 52.2128 31.478L51.3988 31.489C51.2521 31.4963 51.0541 31.5 50.8048 31.5C50.7901 31.5 50.7828 31.478 50.7828 31.434C50.7828 31.39 50.7901 31.368 50.8048 31.368C51.0395 31.368 51.2118 31.3497 51.3218 31.313C51.4318 31.2763 51.5051 31.2067 51.5418 31.104C51.5858 30.994 51.6078 30.829 51.6078 30.609V25.516C51.6078 25.296 51.5858 25.1347 51.5418 25.032C51.5051 24.9293 51.4318 24.8597 51.3218 24.823C51.2191 24.779 51.0541 24.757 50.8268 24.757C50.8048 24.757 50.7938 24.735 50.7938 24.691C50.7938 24.647 50.8048 24.625 50.8268 24.625L51.4098 24.636C51.7471 24.6507 52.0148 24.658 52.2128 24.658C52.5135 24.658 52.8215 24.647 53.1368 24.625C53.5181 24.6103 53.7748 24.603 53.9068 24.603C54.6475 24.603 55.3038 24.7497 55.8758 25.043C56.4551 25.3363 56.9025 25.736 57.2178 26.242C57.5331 26.748 57.6908 27.3163 57.6908 27.947C57.6908 28.6583 57.5258 29.289 57.1958 29.839C56.8731 30.3817 56.4331 30.8033 55.8758 31.104C55.3258 31.3973 54.7208 31.544 54.0608 31.544ZM53.9508 31.291C54.4201 31.291 54.8345 31.1737 55.1938 30.939C55.5531 30.697 55.8318 30.3413 56.0298 29.872C56.2351 29.4027 56.3378 28.8417 56.3378 28.189C56.3378 27.5657 56.2425 27.001 56.0518 26.495C55.8611 25.9817 55.5898 25.5783 55.2378 25.285C54.8858 24.9917 54.4788 24.845 54.0168 24.845C53.5621 24.845 53.2505 24.889 53.0818 24.977C52.9131 25.065 52.8288 25.252 52.8288 25.538V30.488C52.8288 30.7813 52.9058 30.9903 53.0598 31.115C53.2138 31.2323 53.5108 31.291 53.9508 31.291ZM58.3517 31.5C58.3297 31.5 58.3187 31.478 58.3187 31.434C58.3187 31.39 58.3297 31.368 58.3517 31.368C58.5863 31.368 58.755 31.3497 58.8577 31.313C58.9677 31.2763 59.041 31.2067 59.0777 31.104C59.1143 30.994 59.1327 30.829 59.1327 30.609V25.516C59.1327 25.296 59.1143 25.1347 59.0777 25.032C59.041 24.9293 58.9677 24.8597 58.8577 24.823C58.7477 24.779 58.579 24.757 58.3517 24.757C58.3297 24.757 58.3187 24.735 58.3187 24.691C58.3187 24.647 58.3297 24.625 58.3517 24.625H63.0157C63.089 24.625 63.1257 24.658 63.1257 24.724L63.1477 26.187C63.1477 26.2017 63.1257 26.2127 63.0817 26.22C63.045 26.2273 63.023 26.22 63.0157 26.198C62.8983 25.7727 62.7003 25.4573 62.4217 25.252C62.143 25.0467 61.7763 24.944 61.3217 24.944H60.9917C60.7717 24.944 60.6103 24.9917 60.5077 25.087C60.405 25.1823 60.3537 25.329 60.3537 25.527V30.565C60.3537 30.7777 60.394 30.9353 60.4747 31.038C60.5553 31.1407 60.6837 31.192 60.8597 31.192H61.2227C61.7947 31.192 62.253 31.0747 62.5977 30.84C62.9423 30.6053 63.1953 30.2423 63.3567 29.751C63.3567 29.7363 63.3713 29.729 63.4007 29.729C63.4227 29.729 63.441 29.7363 63.4557 29.751C63.4777 29.7583 63.4887 29.7657 63.4887 29.773C63.4153 30.345 63.3787 30.8657 63.3787 31.335C63.3787 31.3937 63.3677 31.4377 63.3457 31.467C63.3237 31.489 63.2797 31.5 63.2137 31.5H58.3517ZM62.5977 29.047C62.5977 28.7463 62.4803 28.5117 62.2457 28.343C62.0183 28.167 61.6883 28.079 61.2557 28.079H59.7707V27.771H61.2667C61.692 27.771 62.0183 27.6977 62.2457 27.551C62.473 27.4043 62.5867 27.199 62.5867 26.935C62.5867 26.913 62.605 26.902 62.6417 26.902C62.6857 26.902 62.7077 26.913 62.7077 26.935L62.6967 27.925L62.7077 28.453C62.7223 28.7023 62.7297 28.9003 62.7297 29.047C62.7297 29.0617 62.7077 29.069 62.6637 29.069C62.6197 29.069 62.5977 29.0617 62.5977 29.047Z" fill="black"/>
</svg>
