<svg width="68" height="19" viewBox="0 0 68 19" fill="none" xmlns="http://www.w3.org/2000/svg">
<path d="M13.768 16.248C13.768 16.248 12.544 18.216 8.536 18.216C3.88 18.216 2.032 16.872 2.032 16.872V12.264H2.344C2.8 13.8 4.528 17.904 8.536 17.904C11.104 17.904 11.872 14.568 8.968 12.432L5.272 10.104C1.864 7.968 0.808 5.304 2.824 2.712C2.824 2.712 4.072 0.887999 7.936 0.887999C12.04 0.887999 13.864 2.016 13.864 2.016V6.048H13.552C13.072 4.56 11.776 1.2 7.936 1.2C5.344 1.2 4.504 4.224 7.624 6.264L11.32 8.712C14.488 10.8 15.568 13.632 13.768 16.248ZM28.9148 9.672C28.9148 3.096 28.2188 1.2 25.3868 1.2C22.5308 1.2 21.8108 3.096 21.8108 9.672C21.8108 16.272 22.5308 17.904 25.3868 17.904C28.2188 17.904 28.9148 16.272 28.9148 9.672ZM33.9068 9.672C33.9068 14.448 30.6668 18.216 25.3868 18.216C20.1068 18.216 16.8668 14.448 16.8668 9.672C16.8668 4.92 20.1068 0.887999 25.3868 0.887999C30.6668 0.887999 33.9068 4.92 33.9068 9.672ZM44.4871 1.104H51.5191V1.416C50.4391 1.416 49.1191 1.776 46.9831 6.768L42.4471 18H41.8951C35.7511 3.864 35.4391 3.36 35.4391 3.36C34.6231 1.44 33.9991 1.44 33.3511 1.416V1.104H41.1751V1.416C39.3511 1.416 40.4791 4.2 40.4791 4.2L44.1751 12.912L46.6711 6.696C47.0311 5.808 47.8951 1.416 44.4871 1.416V1.104ZM59.1563 13.008L56.5163 6.792L54.1403 13.008H59.1563ZM67.1003 17.712V18H59.4683V17.712C61.3643 17.712 60.0203 15.024 60.0203 15.024L59.2763 13.32H54.0683C53.8283 13.872 53.3003 17.808 56.6363 17.712V18H50.2283V17.712C50.9003 17.664 51.8603 17.664 53.9483 12.696L58.4603 1.104H58.7243C64.7003 15.12 65.0123 15.84 65.0123 15.84C65.8523 17.76 66.5483 17.664 67.1003 17.712Z" fill="black"/>
</svg>
